<svg xmlns="http://www.w3.org/2000/svg" width="110" height="110" viewBox="0 0 110 110"><g transform="translate(-1453 -6238)"><path d="M55,3a52.015,52.015,0,0,0-20.24,99.915A52.014,52.014,0,0,0,75.24,7.085,51.672,51.672,0,0,0,55,3m0-3A55,55,0,1,1,0,55,55,55,0,0,1,55,0Z" transform="translate(1453 6238)" fill="#63be6a"/><g transform="translate(-3513.469 5629.691)"><g transform="translate(4988 665.69)"><path d="M66.371,46.567,46.5,36.308a1.047,1.047,0,0,0-.96,1.86l7.337,3.787-8.734,4.639-3.984-2.113a1.047,1.047,0,0,0-.981,1.848l2.733,1.45-8.442,4.484-8.442-4.484,2.733-1.45a1.046,1.046,0,0,0-.981-1.848l-3.984,2.113-8.734-4.639L21.4,38.168a1.048,1.048,0,0,0-.96-1.86L.566,46.567a1.048,1.048,0,0,0,0,1.86L32.989,65.16a1.047,1.047,0,0,0,.958,0L66.37,48.426a1.045,1.045,0,0,0,0-1.86Zm-22.228,2.4,8.2,4.35-8.57,4.423L35.7,53.446Zm-12.9,4.485-8.075,4.288-8.57-4.423,8.2-4.35ZM11.8,43.122l8.763,4.654L12.33,52.143l-9-4.647L11.8,43.122ZM33.468,63.054,25.425,58.9l8.043-4.271L41.511,58.9ZM54.606,52.143l-8.233-4.367,8.764-4.654L63.608,47.5l-9,4.647Z" transform="translate(-0.002 -36.206)" fill="#63be6a"/><path d="M46.049,36.006h0a1.236,1.236,0,0,1,.536.122l.006,0L66.463,46.389a1.245,1.245,0,0,1,0,2.215L34.039,65.338a1.247,1.247,0,0,1-1.141,0L.475,48.6a1.248,1.248,0,0,1,0-2.215l19.88-10.263A1.248,1.248,0,0,1,21.5,38.341l-.01.005-7,3.612,8.3,4.41,3.89-2.063a1.246,1.246,0,0,1,1.169,2.2l-2.4,1.273,8.016,4.257,8.016-4.257L39.076,46.5a1.247,1.247,0,0,1,1.168-2.2l.007,0,3.89,2.063,8.3-4.41-7-3.615a1.247,1.247,0,0,1,.607-2.337Zm.361.481a.847.847,0,0,0-.777,1.5l7.673,3.961L44.142,46.82,40.068,44.66a.847.847,0,0,0-.794,1.495l3.062,1.624-8.869,4.71L24.6,47.779l3.066-1.626a.846.846,0,1,0-.794-1.495L22.793,46.82l-9.165-4.867,7.671-3.96a.848.848,0,0,0-.777-1.5L.657,46.744a.848.848,0,0,0,0,1.5L33.081,64.983a.862.862,0,0,0,.775,0L66.278,48.248a.845.845,0,0,0,0-1.5ZM55.135,42.9l8.909,4.6L54.7,52.321l-.058-.111-.033.134-.034-.137-.06.113-8.566-4.543Zm8.037,4.6-8.034-4.148L46.8,47.777l7.807,4.141ZM11.75,42.922h.1l.045.023,9.1,4.831-8.659,4.592L2.891,47.5Zm8.387,4.854L11.8,43.348,3.763,47.5l8.566,4.421Zm2.658.959,8.871,4.711-8.5,4.514-9-4.646Zm8.018,4.711-8.018-4.258-7.769,4.121,8.137,4.2Zm13.331-4.711,8.632,4.579-9,4.646-8.5-4.514Zm7.769,4.574-7.769-4.121-8.018,4.258,7.65,4.062ZM33.468,54.4l8.474,4.5-8.474,4.375L24.994,58.9Zm7.612,4.5-7.612-4.042L25.857,58.9l7.612,3.93Z" transform="translate(-0.002 -36.206)" fill="#63be6a"/></g><g transform="translate(5005.243 631.856)"><path d="M16.485,41.509A1.572,1.572,0,0,1,15.009,40.5a19.485,19.485,0,0,0-3.028-4.8C9.946,33.144,5.234,27.938,4.7,27.353l-.478-.532a1.481,1.481,0,0,1-.161-.181,16.225,16.225,0,1,1,24.848,0,1.5,1.5,0,0,1-.166.186l-.61.669c-3.535,3.927-5.942,6.69-7.153,8.211a19.456,19.456,0,0,0-3.021,4.8,1.573,1.573,0,0,1-1.477,1.007M6.571,25.733c.684.756,5.3,5.863,7.343,8.427a28.743,28.743,0,0,1,2.568,3.727,28.421,28.421,0,0,1,2.567-3.727C20.291,32.6,22.73,29.8,26.3,25.836l.179-.192c.093-.107.179-.2.252-.277l.05-.054c.026-.033.08-.092.127-.142l.1-.113A13.75,13.75,0,0,0,7.095,6.164,13.61,13.61,0,0,0,2.731,16.206,13.752,13.752,0,0,0,5.94,25.031l.1.114c.074.08.126.136.183.2l.244.268c.032.033.068.071.107.118m20.557-.775c-.026.02-.05.04-.073.06Z" transform="translate(-0.261 0.023)" fill="#63be6a"/><path d="M16.495,41.709h-.018a1.783,1.783,0,0,1-1.652-1.131,19.273,19.273,0,0,0-2.995-4.747l0-.006c-2.09-2.626-7.059-8.106-7.27-8.338l-.474-.527a1.686,1.686,0,0,1-.174-.2,16.425,16.425,0,1,1,25.161,0,1.7,1.7,0,0,1-.179.2l-.605.664c-3.529,3.92-5.933,6.68-7.145,8.2l0,.005a19.241,19.241,0,0,0-2.988,4.747A1.784,1.784,0,0,1,16.495,41.709Zm-.01-.4h.01a1.381,1.381,0,0,0,1.281-.879l0-.009a19.643,19.643,0,0,1,3.05-4.848c1.217-1.528,3.626-4.292,7.159-8.217l.621-.681a1.3,1.3,0,0,0,.144-.161l.007-.008a16.025,16.025,0,1,0-24.541,0l.007.009a1.283,1.283,0,0,0,.139.157l.011.011.478.532c.21.232,5.184,5.717,7.284,8.354a19.671,19.671,0,0,1,3.056,4.847l0,.009a1.38,1.38,0,0,0,1.281.88Zm0-3.023-.173-.3a28.632,28.632,0,0,0-2.551-3.7C11.942,32,8.044,27.661,6.453,25.9l-.032-.035c-.036-.042-.069-.077-.1-.11l-.251-.277c-.049-.057-.093-.105-.154-.172l-.024-.026-.106-.121a13.955,13.955,0,1,1,21.455-.067l.017.021-.073.06-.006-.007-.017.02,0,.005-.1.113c-.081.086-.109.12-.119.132l-.01.012-.05.054c-.065.069-.153.163-.248.272l0,.005-.179.192c-3.543,3.936-5.98,6.734-7.24,8.312a28.315,28.315,0,0,0-2.55,3.7ZM6.724,25.6l.026.029c1.594,1.764,5.5,6.115,7.32,8.4a29.033,29.033,0,0,1,2.412,3.456,28.722,28.722,0,0,1,2.412-3.457c1.264-1.583,3.706-4.387,7.256-8.331l.179-.192c.091-.1.172-.192.255-.28l.044-.048c.026-.032.068-.079.133-.148l.1-.108A13.555,13.555,0,1,0,6.092,24.9l.119.134c.061.066.11.119.163.181l.241.266C6.646,25.515,6.683,25.554,6.724,25.6Z" transform="translate(-0.261 0.023)" fill="#63be6a"/><path d="M20,27.517a7.787,7.787,0,1,1,7.787-7.787A7.788,7.788,0,0,1,20,27.517m0-13.1a5.316,5.316,0,1,0,5.316,5.316A5.316,5.316,0,0,0,20,14.413" transform="translate(-3.773 -3.497)" fill="#63be6a"/><path d="M20,27.717h0a7.987,7.987,0,1,1,0-15.975h0a7.987,7.987,0,0,1,0,15.975Zm0-15.575a7.587,7.587,0,1,0,5.365,2.222A7.538,7.538,0,0,0,20,12.142Zm0,13.1a5.516,5.516,0,1,1,0-11.032v0a5.516,5.516,0,0,1,0,11.032Zm0-10.632a5.116,5.116,0,1,0,5.116,5.116A5.083,5.083,0,0,0,20,14.613Z" transform="translate(-3.773 -3.497)" fill="#63be6a"/></g></g></g></svg>