<svg width="20" height="20" viewBox="0 0 20 20" fill="none" xmlns="http://www.w3.org/2000/svg">
<g clip-path="url(#clip0_843_1118)">
<path d="M8.41992 11.418H11.2599L11.5799 8.578H8.73992L8.41992 11.418Z" fill="#46C752"/>
<path d="M14.19 0H5.81C2.17 0 0 2.17 0 5.81V14.18C0 17.83 2.17 20 5.81 20H14.18C17.82 20 19.99 17.83 19.99 14.19V5.81C20 2.17 17.83 0 14.19 0ZM16.82 8.58H13.05L12.73 11.43H16.1C16.2936 11.43 16.4793 11.5069 16.6162 11.6438C16.7531 11.7807 16.83 11.9664 16.83 12.16C16.83 12.3536 16.7531 12.5393 16.6162 12.6762C16.4793 12.8131 16.2936 12.89 16.1 12.89H12.57L12.16 16.55C12.1392 16.729 12.0533 16.8941 11.9187 17.0139C11.7841 17.1338 11.6102 17.2 11.43 17.2H11.35C11.1569 17.1776 10.9804 17.08 10.8587 16.9284C10.7371 16.7768 10.68 16.5834 10.7 16.39L11.09 12.89H8.25L7.84 16.55C7.81916 16.729 7.73329 16.8941 7.59871 17.0139C7.46412 17.1338 7.2902 17.2 7.11 17.2H7.03C6.8369 17.1776 6.66039 17.08 6.53872 16.9284C6.41706 16.7768 6.36003 16.5834 6.38 16.39L6.77 12.89H3.18C2.98639 12.89 2.80071 12.8131 2.66381 12.6762C2.52691 12.5393 2.45 12.3536 2.45 12.16C2.45 11.9664 2.52691 11.7807 2.66381 11.6438C2.80071 11.5069 2.98639 11.43 3.18 11.43H6.95L7.27 8.58H3.9C3.80414 8.58 3.70921 8.56112 3.62064 8.52443C3.53207 8.48775 3.4516 8.43397 3.38381 8.36619C3.31603 8.2984 3.26225 8.21793 3.22557 8.12936C3.18888 8.04079 3.17 7.94587 3.17 7.85C3.17 7.75414 3.18888 7.65921 3.22557 7.57064C3.26225 7.48207 3.31603 7.4016 3.38381 7.33381C3.4516 7.26602 3.53207 7.21225 3.62064 7.17557C3.70921 7.13888 3.80414 7.12 3.9 7.12H7.43L7.84 3.46C7.86122 3.26639 7.95848 3.08914 8.11038 2.96724C8.26228 2.84535 8.45639 2.78878 8.65 2.81C8.84361 2.83122 9.02086 2.92848 9.14276 3.08038C9.26466 3.23228 9.32122 3.42639 9.3 3.62L8.91 7.12H11.75L12.16 3.46C12.1705 3.36414 12.1998 3.27128 12.2462 3.18673C12.2926 3.10218 12.3552 3.0276 12.4304 2.96724C12.5056 2.90689 12.592 2.86193 12.6846 2.83495C12.7771 2.80797 12.8741 2.79949 12.97 2.81C13.0659 2.82051 13.1587 2.84979 13.2433 2.89618C13.3278 2.94257 13.4024 3.00516 13.4628 3.08038C13.5231 3.1556 13.5681 3.24196 13.595 3.33455C13.622 3.42714 13.6305 3.52413 13.62 3.62L13.23 7.12H16.84C17.0333 7.12105 17.2184 7.1983 17.355 7.33497C17.4917 7.47165 17.5689 7.65672 17.57 7.85C17.5643 8.04526 17.4828 8.23063 17.3428 8.36688C17.2029 8.50313 17.0153 8.57956 16.82 8.58Z" fill="#46C752"/>
</g>
<defs>
<clipPath id="clip0_843_1118">
<rect width="19.99" height="20" fill="white"/>
</clipPath>
</defs>
</svg>
