<svg width="166" height="146" viewBox="0 0 166 146" fill="none" xmlns="http://www.w3.org/2000/svg">
<g clip-path="url(#clip0_854_4670)">
<path d="M166 0H0V146H166V0Z" fill="white"/>
<mask id="mask0_854_4670" style="mask-type:luminance" maskUnits="userSpaceOnUse" x="33" y="23" width="100" height="100">
<path d="M133 23H33V123H133V23Z" fill="white"/>
</mask>
<g mask="url(#mask0_854_4670)">
<path d="M83 27.366C92.0256 27.3658 100.849 30.042 108.353 35.0562C115.858 40.0704 121.707 47.1974 125.161 55.5359C128.615 63.8744 129.519 73.0499 127.758 81.9021C125.998 90.7543 121.651 98.8856 115.269 105.268C108.887 111.65 100.756 115.996 91.9041 117.757C83.052 119.518 73.8764 118.614 65.5379 115.16C57.1993 111.706 50.0722 105.857 45.0578 98.353C40.0434 90.8485 37.367 82.0256 37.367 73C37.367 60.8973 42.1747 49.2902 50.7325 40.7322C59.2904 32.1742 70.8973 27.3663 83 27.366ZM83 23C73.111 23 63.444 25.9324 55.2215 31.4265C46.999 36.9206 40.5904 44.7295 36.806 53.8658C33.0217 63.0021 32.0315 73.0555 33.9608 82.7545C35.89 92.4535 40.6521 101.363 47.6447 108.355C54.6373 115.348 63.5465 120.11 73.2455 122.039C82.9446 123.968 92.9979 122.978 102.134 119.194C111.27 115.41 119.079 109.001 124.573 100.778C130.068 92.556 133 82.8891 133 73C133 59.7392 127.732 47.0215 118.355 37.6447C108.979 28.2678 96.2608 23 83 23Z" fill="#003462"/>
<path d="M109.771 92.425C107.935 91.6631 105.957 91.3066 103.971 91.38C99.2998 91.38 92.1378 92.838 83.1808 99.423L83.1418 99.452L82.9588 99.312C73.9998 92.726 66.9508 91.382 62.2798 91.382C60.2938 91.3086 58.3153 91.6651 56.4798 92.427C56.3678 92.492 56.1598 92.613 56.2118 92.813C56.2448 92.937 56.3558 93 56.5388 93C56.5964 92.9998 56.6539 92.9951 56.7108 92.986C57.8125 92.711 58.9442 92.5742 60.0798 92.579C66.1378 92.579 73.9698 97.16 80.2388 101.719C78.9708 102.759 77.6768 103.888 76.3448 105.133C76.1588 104.969 76.0958 104.933 75.9158 104.778C75.435 104.362 74.8869 104.03 74.2948 103.798C73.9921 103.683 73.663 103.657 73.3458 103.721C73.042 103.797 72.7777 103.985 72.6048 104.246C72.432 104.507 72.3632 104.824 72.4118 105.133C72.4146 105.398 72.513 105.653 72.6888 105.851C72.8646 106.049 73.1061 106.178 73.3688 106.212C73.5576 106.218 73.7444 106.172 73.909 106.08C74.0737 105.987 74.2098 105.851 74.3028 105.687C74.5408 105.887 74.7708 106.072 74.9758 106.269C75.0758 106.362 75.1658 106.459 75.2618 106.554L74.8728 106.895C74.5728 107.163 74.2728 107.424 73.9668 107.677C73.3756 108.202 72.7155 108.644 72.0048 108.991C71.7561 109.12 71.4799 109.186 71.1998 109.185C71.0486 109.164 70.8994 109.131 70.7538 109.085L70.6458 109.054C70.6311 109.049 70.6167 109.042 70.6028 109.035C70.5128 108.987 70.4165 108.952 70.3168 108.93C70.2723 108.922 70.2271 108.918 70.1818 108.918C70.0727 108.917 69.9654 108.945 69.8713 109C69.7772 109.055 69.6999 109.135 69.6478 109.231C69.5221 109.478 69.4898 109.762 69.5568 110.031C69.6113 110.218 69.7101 110.39 69.8448 110.531C70.2736 111.041 70.8824 111.367 71.5448 111.44C71.6656 111.454 71.7872 111.46 71.9088 111.46C72.0334 111.46 72.1579 111.453 72.2818 111.44C72.8376 111.371 73.3782 111.21 73.8818 110.965C74.8425 110.505 75.744 109.93 76.5668 109.253L77.3598 108.617C77.6188 108.868 77.8898 109.117 78.1598 109.368C78.5145 109.712 78.9353 109.981 79.3968 110.158C79.5394 110.207 79.6891 110.231 79.8398 110.231C79.8977 110.231 79.9555 110.228 80.0128 110.22C80.0828 110.214 80.1488 110.203 80.2188 110.191C80.4454 110.132 80.6489 110.007 80.8026 109.83C80.9563 109.653 81.0529 109.435 81.0798 109.202C81.1278 108.957 81.1064 108.704 81.0181 108.471C80.9297 108.238 80.7779 108.034 80.5798 107.883C80.3971 107.764 80.1787 107.712 79.962 107.737C79.7453 107.761 79.544 107.861 79.3928 108.018C79.3447 108.062 79.3012 108.111 79.2628 108.164C79.0558 107.957 78.8568 107.738 78.6528 107.514C79.9658 106.328 81.5528 105.107 83.0668 103.899C84.5948 105.107 86.2778 106.328 87.5908 107.514C87.3908 107.738 87.1908 107.957 86.9808 108.164C86.9427 108.112 86.8998 108.063 86.8528 108.018C86.7011 107.861 86.4995 107.762 86.2826 107.737C86.0656 107.712 85.8468 107.764 85.6638 107.883C85.466 108.035 85.3144 108.238 85.226 108.471C85.1377 108.704 85.1162 108.957 85.1638 109.202C85.1907 109.435 85.2873 109.653 85.441 109.83C85.5947 110.007 85.7982 110.132 86.0248 110.191C86.0928 110.203 86.1608 110.214 86.2308 110.22C86.2878 110.227 86.3453 110.231 86.4028 110.231C86.5538 110.232 86.7039 110.207 86.8468 110.158C87.3085 109.981 87.7294 109.713 88.0838 109.368C88.3578 109.122 88.6288 108.868 88.8838 108.617L89.6768 109.253C90.4995 109.929 91.4006 110.504 92.3608 110.965C92.8644 111.21 93.405 111.371 93.9608 111.44C94.0843 111.453 94.2085 111.46 94.3328 111.46C94.4554 111.46 94.5779 111.454 94.6998 111.44C95.3622 111.367 95.971 111.041 96.3998 110.531C96.5345 110.39 96.6332 110.218 96.6878 110.031C96.754 109.762 96.7218 109.478 96.5968 109.231C96.5446 109.135 96.4674 109.055 96.3733 109C96.2792 108.945 96.1718 108.917 96.0628 108.918C96.0175 108.918 95.9723 108.922 95.9278 108.93C95.8281 108.952 95.7319 108.987 95.6418 109.035L95.5998 109.054L95.4888 109.085C95.3439 109.131 95.1954 109.164 95.0448 109.185C94.7664 109.185 94.4921 109.119 94.2448 108.991C93.5342 108.645 92.8744 108.202 92.2838 107.677C91.9838 107.425 91.6838 107.163 91.3778 106.895L90.9888 106.554C91.0888 106.46 91.1778 106.362 91.2748 106.269C91.4808 106.069 91.7098 105.882 91.9478 105.687C92.0406 105.852 92.1767 105.988 92.3414 106.08C92.5061 106.173 92.693 106.218 92.8818 106.212C93.144 106.177 93.3848 106.049 93.5602 105.851C93.7356 105.653 93.8338 105.398 93.8368 105.134C93.885 104.825 93.8159 104.508 93.6431 104.247C93.4704 103.986 93.2064 103.799 92.9028 103.722C92.5855 103.657 92.2565 103.684 91.9538 103.799C91.3616 104.032 90.8132 104.363 90.3318 104.779C90.1538 104.929 90.0898 104.969 89.9048 105.134C88.6138 103.934 87.2728 102.747 86.0218 101.713C92.2898 97.155 100.115 92.58 106.17 92.58C107.306 92.5753 108.438 92.712 109.54 92.987C109.596 92.9962 109.653 93.0009 109.71 93.001C109.891 93.001 110.003 92.938 110.037 92.814C110.091 92.614 109.881 92.494 109.769 92.428" fill="#003462"/>
<path d="M85.7496 89.597C85.2216 90.6945 84.79 91.8358 84.4596 93.008C85.2506 92.364 87.6336 91.884 88.6536 91.663C95.9536 90.085 96.4056 83.455 96.6236 82.154C96.4316 82.524 95.9166 83.306 91.4526 83.51C89.1166 83.617 85.2366 83.903 83.2246 87.744C83.5917 88.4983 83.8712 89.2921 84.0576 90.11C86.5576 84.117 92.7416 84.938 93.7926 84.71C92.7496 85.167 88.2706 85.387 85.7496 89.593" fill="#003462"/>
<path d="M83.0026 96.618L84.1026 96.075C83.8336 84.318 77.4876 83.649 74.4176 83.51C69.9526 83.304 69.4386 82.524 69.2456 82.154C69.4636 83.454 69.9206 90.085 77.2166 91.663C78.2566 91.887 79.8016 92.101 80.5456 92.763C79.6926 85.081 73.3546 85.27 72.0766 84.712C73.2766 84.967 82.3166 83.051 81.8946 96.074L83.0026 96.618Z" fill="#003462"/>
<path d="M79.299 62.754C79.434 65.072 80.928 66.954 82.939 66.954C84.95 66.954 86.551 65.071 86.579 62.754C86.619 59.54 82.939 53.412 82.939 53.412C82.939 53.412 79.1 59.39 79.299 62.754ZM84.519 65.51C84.0672 65.8836 83.5003 66.0899 82.914 66.094C82.1114 66.0323 81.3657 65.6562 80.8389 65.0476C80.3122 64.439 80.047 63.6471 80.101 62.844C80.1891 61.9995 80.4063 61.1736 80.745 60.395C80.6322 60.7803 80.567 61.1779 80.551 61.579C80.4859 62.5629 80.8116 63.5327 81.4574 64.2779C82.1032 65.0231 83.0168 65.4834 84 65.559C84.1741 65.5581 84.3479 65.5413 84.519 65.509" fill="#003462"/>
<path d="M72.9297 75.184C72.9297 81.884 82.4297 84.026 82.4297 84.026V81.941C82.4297 74.987 72.9297 73.101 72.9297 73.101V75.184Z" fill="#003462"/>
<path d="M83.4106 81.941V84.02C83.4106 84.02 92.9106 81.88 92.9106 75.18V73.104C92.9106 73.104 83.4106 74.99 83.4106 81.946" fill="#003462"/>
<path d="M75.3228 67.645C75.3228 73.095 82.5438 74.833 82.5438 74.833V73.142C82.5438 67.488 75.3228 65.954 75.3228 65.954V67.645Z" fill="#003462"/>
<path d="M83.293 73.141V74.832C83.293 74.832 90.514 73.093 90.514 67.644V65.953C90.514 65.953 83.293 67.487 83.293 73.141Z" fill="#003462"/>
<path d="M57.667 56.038C63.943 49.718 67.967 48.594 72.988 47.808C67.85 51.079 63.05 58.686 64.544 64.038C67.258 58.359 71.995 52.808 76.361 50.786C75.1529 52.4514 74.4884 54.4491 74.4581 56.5063C74.4279 58.5634 75.0334 60.5798 76.192 62.28C76.742 57.487 80.092 52.88 82.892 49.794C85.692 52.881 89.04 57.487 89.592 62.28C90.7512 60.58 91.3569 58.5634 91.3265 56.5061C91.296 54.4487 90.6309 52.451 89.422 50.786C93.788 52.808 98.522 58.36 101.239 64.038C102.739 58.686 97.939 51.08 92.797 47.808C97.813 48.594 101.843 49.718 108.119 56.038C106.048 47.583 98.759 44.653 92.93 43.609C99.344 43.058 100.615 43.709 106.28 46.063C100.131 40.002 95.819 38.907 89.659 39.499C90.6914 38.5933 91.9359 37.9631 93.277 37.667C90.692 36.648 86.651 37.182 85.077 38.692C85.077 38.692 84.767 35.916 82.913 34.792V34.767L82.893 34.779L82.877 34.767V34.792C81.022 35.913 80.714 38.692 80.714 38.692C79.139 37.183 75.099 36.648 72.514 37.667C73.856 37.9648 75.1013 38.5959 76.135 39.502C69.973 38.911 65.662 40.002 59.512 46.066C65.175 43.716 66.449 43.061 72.86 43.612C67.033 44.655 59.742 47.586 57.674 56.041" fill="#003462"/>
</g>
<rect x="24" y="17" width="122" height="119" fill="white"/>
<path d="M127.304 72.8456C127.304 97.0127 107.599 116.606 83.293 116.606C58.9871 116.606 39.2866 97.0127 39.2866 72.8456C39.2866 48.6784 58.992 29.0855 83.2978 29.0855C107.604 29.0855 127.309 48.6784 127.309 72.8456" fill="#008034"/>
<path d="M127.304 72.8456C127.304 97.0127 107.599 116.606 83.293 116.606C58.9871 116.606 39.2866 97.0127 39.2866 72.8456C39.2866 48.6784 58.992 29.0855 83.2978 29.0855C107.604 29.0855 127.309 48.6784 127.309 72.8456" fill="url(#paint0_radial_854_4670)"/>
<path d="M83.2977 120C57.1487 120 35.8726 98.8501 35.8726 72.8503C35.8726 46.8505 57.1487 25.7006 83.2977 25.7006C109.447 25.7006 130.718 46.8505 130.718 72.8503C130.718 98.8501 109.447 120 83.2977 120ZM83.2977 28.4229C58.6611 28.4229 38.6251 48.3543 38.6251 72.8503C38.6251 97.3463 58.6611 117.278 83.2977 117.278C107.934 117.278 127.965 97.3463 127.965 72.8503C127.965 48.3543 107.929 28.4229 83.2977 28.4229Z" fill="url(#paint1_linear_854_4670)"/>
<path d="M109.462 91.4955C109.574 91.5583 109.778 91.6792 109.725 91.8726C109.691 91.9935 109.584 92.0564 109.399 92.0564C109.326 92.0564 109.258 92.0467 109.234 92.0418C108.188 91.7759 107.07 91.6453 105.907 91.6453C99.9306 91.6453 92.208 96.1229 86.0221 100.581C87.2524 101.592 88.5752 102.747 89.8494 103.932C90.0342 103.772 90.0974 103.729 90.2724 103.584C90.822 103.129 91.3472 102.815 91.8724 102.626C92.1885 102.51 92.5046 102.486 92.811 102.549C93.4043 102.67 93.7934 103.25 93.7301 103.932C93.6766 104.517 93.273 104.967 92.7867 104.986C92.4025 104.996 92.0621 104.807 91.8676 104.474C91.6293 104.667 91.4056 104.851 91.2013 105.044C91.1041 105.136 91.0116 105.228 90.9192 105.32L91.3034 105.653C91.605 105.915 91.8967 106.171 92.1934 106.417C92.777 106.901 93.414 107.389 94.1289 107.704C94.3526 107.8 94.6444 107.916 94.9216 107.892C95.0577 107.883 95.2037 107.839 95.3593 107.795L95.4663 107.766C95.4663 107.766 95.4954 107.757 95.51 107.747C95.5976 107.708 95.6851 107.665 95.7921 107.646C95.831 107.641 95.8748 107.631 95.9234 107.631C96.1471 107.631 96.3368 107.742 96.4486 107.936C96.5702 108.139 96.6042 108.458 96.541 108.719C96.4875 108.932 96.3708 109.082 96.2589 109.212C95.7921 109.734 95.228 110.034 94.5812 110.102C94.4645 110.116 94.3429 110.121 94.2213 110.121C94.0997 110.121 93.9782 110.116 93.8517 110.102C93.3605 110.054 92.8451 109.899 92.2761 109.638C91.425 109.246 90.5837 108.714 89.6257 107.96L88.8427 107.336C88.5849 107.583 88.3175 107.829 88.0452 108.071C87.7242 108.356 87.3254 108.676 86.8245 108.845C86.6883 108.893 86.5424 108.917 86.3868 108.917C86.3285 108.917 86.275 108.917 86.2166 108.908C86.1485 108.903 86.0805 108.893 86.0124 108.874C85.5844 108.792 85.244 108.4 85.1613 107.907C85.0787 107.384 85.2732 106.867 85.6525 106.616C86.0221 106.374 86.4792 106.422 86.8245 106.746C86.8731 106.79 86.912 106.838 86.951 106.886C87.1552 106.683 87.3546 106.471 87.554 106.248C86.2604 105.088 84.5972 103.893 83.0896 102.709C81.5967 103.893 80.0259 105.088 78.7323 106.248C78.9317 106.471 79.131 106.683 79.3353 106.886C79.3742 106.833 79.418 106.785 79.4617 106.746C79.807 106.427 80.269 106.374 80.6338 106.616C81.0082 106.862 81.2076 107.38 81.1249 107.907C81.0471 108.4 80.7018 108.787 80.2739 108.874C80.2058 108.888 80.1377 108.898 80.0696 108.908C80.0113 108.912 79.9529 108.917 79.8994 108.917C79.7438 108.917 79.6028 108.893 79.4617 108.845C78.9608 108.676 78.5621 108.361 78.2411 108.071C77.9688 107.829 77.7013 107.583 77.4436 107.336L76.6606 107.96C75.7074 108.709 74.8612 109.246 74.0102 109.638C73.4363 109.899 72.9208 110.054 72.4345 110.102C72.3081 110.116 72.1865 110.121 72.0649 110.121C71.9434 110.121 71.8218 110.116 71.7051 110.102C71.0583 110.034 70.4893 109.734 70.0273 109.212C69.9155 109.082 69.7987 108.937 69.7452 108.719C69.6772 108.458 69.7161 108.144 69.8328 107.936C69.9446 107.737 70.1343 107.631 70.358 107.631C70.4066 107.631 70.4504 107.636 70.4893 107.646C70.5963 107.665 70.6887 107.708 70.7714 107.747C70.7859 107.752 70.8005 107.762 70.8151 107.766L70.9221 107.795C71.0777 107.839 71.2285 107.878 71.3598 107.892C71.637 107.916 71.9337 107.8 72.1525 107.704C72.8674 107.389 73.5093 106.901 74.088 106.417C74.3847 106.171 74.6813 105.915 74.978 105.653L75.3621 105.32C75.2697 105.228 75.1773 105.136 75.0801 105.044C74.8758 104.851 74.6521 104.662 74.4138 104.474C74.2144 104.812 73.8789 104.996 73.4947 104.986C73.0132 104.967 72.6047 104.517 72.5512 103.932C72.488 103.25 72.8771 102.67 73.4704 102.549C73.7768 102.486 74.0929 102.51 74.409 102.626C74.9342 102.82 75.4594 103.129 76.0089 103.584C76.184 103.729 76.2472 103.772 76.432 103.932C77.7451 102.714 79.0241 101.606 80.2739 100.591C74.088 96.1277 66.3605 91.6453 60.3789 91.6453C59.2166 91.6453 58.0981 91.7807 57.0525 92.0418C57.0282 92.0467 56.9601 92.0564 56.8872 92.0564C56.7072 92.0564 56.5954 91.9935 56.5613 91.8726C56.5078 91.6792 56.7169 91.5583 56.8239 91.4955C57.1984 91.2779 59.275 90.4704 62.5478 90.4704C67.1581 90.4704 74.1172 91.7904 82.9583 98.2311L83.1383 98.3713L83.1772 98.3423C92.0183 91.8968 99.0893 90.4704 103.7 90.4704C106.972 90.4704 109.049 91.2779 109.423 91.4955M85.7497 88.7296C85.2148 89.6145 84.4756 92.0322 84.4756 92.066C85.2586 91.4374 87.6075 90.9636 88.6141 90.7508C95.8164 89.2083 96.2638 82.7193 96.4827 81.4476C96.293 81.8102 95.7824 82.5742 91.3764 82.7724C89.0713 82.8788 85.244 83.1593 83.255 86.9164C83.6002 87.6078 83.8726 88.3815 84.0768 89.2325C86.5473 83.3672 92.6505 84.1699 93.6864 83.9523C92.6554 84.3971 88.2348 84.6147 85.7449 88.7296M83.0361 95.6007L84.1206 95.0688C83.858 83.5654 77.5894 82.9127 74.5597 82.7724C70.1537 82.5742 69.6431 81.8054 69.4583 81.4476C69.6723 82.7193 70.1245 89.2083 77.3268 90.7508C78.3529 90.9732 79.88 91.1811 80.6143 91.8291C79.773 84.3101 73.5141 84.4987 72.2546 83.9523C73.4412 84.1989 82.3602 82.3276 81.9468 95.0688L83.0361 95.6007ZM79.3791 62.4639C79.1846 59.171 82.9729 53.3202 82.9729 53.3202C82.9729 53.3202 86.6057 59.3161 86.5667 62.4639C86.5376 64.7365 84.9571 66.5788 82.9729 66.5788C80.9888 66.5788 79.5152 64.7317 79.3791 62.4639ZM84.534 65.162C84.3686 65.191 84.1936 65.2104 84.0233 65.2104C82.1413 65.2104 80.6192 63.4648 80.6192 61.3131C80.6192 61.0036 80.6921 60.6071 80.8088 60.1526C80.4392 61.1197 80.1718 62.0045 80.1718 62.5509C80.1718 64.3062 81.4167 65.7326 82.9486 65.7326C83.537 65.7326 84.0866 65.5199 84.534 65.162ZM73.0959 74.6248C73.0959 81.1816 82.472 83.2753 82.472 83.2753V81.2396C82.472 74.4363 73.0959 72.5892 73.0959 72.5892V74.6248ZM83.4398 81.2445V83.2802C83.4398 83.2802 92.8159 81.1864 92.8159 74.6297V72.594C92.8159 72.594 83.4398 74.4411 83.4398 81.2445ZM75.4594 67.2461C75.4594 72.5795 82.5887 74.2815 82.5887 74.2815V72.6278C82.5887 67.0962 75.4594 65.5924 75.4594 65.5924V67.2461ZM83.3231 72.6278V74.2815C83.3231 74.2815 90.4524 72.5795 90.4524 67.2461V65.5924C90.4524 65.5924 83.3231 67.0913 83.3231 72.623M58.03 55.8926C64.2207 49.7082 68.1988 48.6106 73.1543 47.8369C68.0821 51.0379 63.3454 58.4796 64.8189 63.7211C67.4985 58.1604 72.1719 52.7303 76.4855 50.7478C74.0491 54.1471 73.9664 58.3828 76.3153 61.9949C76.86 57.3046 80.1669 52.798 82.9291 49.7759C85.6914 52.7932 88.9983 57.3046 89.5381 61.9949C91.887 58.378 91.8092 54.1471 89.3679 50.7478C93.6815 52.7255 98.3549 58.1604 101.035 63.7211C102.513 58.4796 97.7714 51.0379 92.704 47.8369C97.6547 48.6057 101.633 49.7082 107.823 55.8926C105.781 47.6193 98.5835 44.7519 92.8304 43.7317C99.1622 43.1901 100.417 43.8332 106.01 46.1349C99.9403 40.2019 95.6851 39.1332 89.6062 39.7087C90.6469 38.8044 91.6439 38.3161 93.1757 37.9147C90.6275 36.9186 86.6348 37.4409 85.0835 38.9205C85.0835 38.9205 84.7771 36.203 82.9486 35.1054V35.0812C82.9486 35.0812 82.934 35.0909 82.9291 35.0957C82.9243 35.0909 82.9146 35.086 82.9097 35.0812V35.1054C81.0812 36.203 80.7748 38.9205 80.7748 38.9205C79.2235 37.4409 75.2308 36.9186 72.6826 37.9147C74.2144 38.3161 75.2114 38.8044 76.2521 39.7087C70.1732 39.1332 65.918 40.2019 59.8488 46.1349C65.4414 43.8332 66.6961 43.195 73.0278 43.7317C67.2748 44.7519 60.0822 47.6193 58.0348 55.8926" fill="url(#paint2_linear_854_4670)"/>
</g>
<defs>
<radialGradient id="paint0_radial_854_4670" cx="0" cy="0" r="1" gradientUnits="userSpaceOnUse" gradientTransform="translate(81.0122 70.2376) scale(48.14 45.9507)">
<stop stop-opacity="0"/>
<stop offset="0.12" stop-opacity="0"/>
<stop offset="0.15" stop-opacity="0"/>
<stop offset="0.87" stop-opacity="0.2916"/>
<stop offset="1"/>
</radialGradient>
<linearGradient id="paint1_linear_854_4670" x1="46.3185" y1="92.39" x2="129.845" y2="47.7454" gradientUnits="userSpaceOnUse">
<stop stop-color="#C68D00"/>
<stop offset="0.25" stop-color="#FFD740"/>
<stop offset="0.34" stop-color="#F4C833"/>
<stop offset="0.51" stop-color="#D7A313"/>
<stop offset="0.6" stop-color="#C68D00"/>
<stop offset="1" stop-color="#FFD740"/>
</linearGradient>
<linearGradient id="paint2_linear_854_4670" x1="70.0808" y1="37.9776" x2="96.2067" y2="111.053" gradientUnits="userSpaceOnUse">
<stop stop-color="#C68D00"/>
<stop offset="0.05" stop-color="#D2A32A"/>
<stop offset="0.1" stop-color="#DFB955"/>
<stop offset="0.16" stop-color="#EACC78"/>
<stop offset="0.22" stop-color="#F2DA94"/>
<stop offset="0.27" stop-color="#F8E4A8"/>
<stop offset="0.33" stop-color="#FBEAB4"/>
<stop offset="0.39" stop-color="#FDEDB8"/>
<stop offset="0.58" stop-color="#FDEDB8"/>
<stop offset="0.65" stop-color="#F5E09F"/>
<stop offset="0.79" stop-color="#E3C061"/>
<stop offset="1" stop-color="#C68D00"/>
</linearGradient>
<clipPath id="clip0_854_4670">
<rect width="166" height="146" fill="white"/>
</clipPath>
</defs>
</svg>
