<svg xmlns="http://www.w3.org/2000/svg" width="12.186" height="17.869" viewBox="0 0 12.186 17.869">
  <path id="Mobile" d="M717.186,1773.843a3.085,3.085,0,0,0-3.281-2.843h-5.624a3.086,3.086,0,0,0-3.281,2.843v12.184a3.086,3.086,0,0,0,3.281,2.843h5.624a3.085,3.085,0,0,0,3.281-2.843Zm-10.78.812h9.374v9.747h-9.374Zm1.875-2.437h5.624a1.843,1.843,0,0,1,1.809,1.219h-9.241A1.844,1.844,0,0,1,708.281,1772.218Zm5.624,15.433h-5.624a1.763,1.763,0,0,1-1.875-1.625v-.406h9.374v.406A1.763,1.763,0,0,1,713.905,1787.651Zm-3.046-1.625a.615.615,0,1,0,.7.609A.661.661,0,0,0,710.859,1786.026Z" transform="translate(-705 -1771)" fill="#fff" fill-rule="evenodd"/>
</svg>
