<svg width="25" height="29" viewBox="0 0 25 29" fill="none" xmlns="http://www.w3.org/2000/svg">
<g clip-path="url(#clip0_842_1114)">
<path d="M22.8491 20.033C21.2381 18.061 20.1011 17.058 20.1011 11.623C20.1011 6.64599 17.5591 4.87199 15.4671 4.01099C15.3225 3.9506 15.1922 3.86045 15.0847 3.74639C14.9772 3.63234 14.8949 3.49694 14.8431 3.34899C14.7337 2.69571 14.3961 2.1024 13.8905 1.67447C13.3849 1.24655 12.744 1.01172 12.0816 1.01172C11.4192 1.01172 10.7783 1.24655 10.2727 1.67447C9.7671 2.1024 9.42958 2.69571 9.32011 3.34899C9.26881 3.49705 9.18666 3.63254 9.07909 3.74649C8.97152 3.86044 8.84098 3.95025 8.69611 4.00999C6.60211 4.87199 4.06212 6.63999 4.06212 11.622C4.06212 17.057 2.92212 18.061 1.31112 20.032C1.15989 20.2243 1.06768 20.4564 1.04566 20.7C1.02364 20.9437 1.07276 21.1885 1.18706 21.4049C1.30136 21.6212 1.47594 21.7997 1.68964 21.9188C1.90335 22.038 2.14701 22.0925 2.39111 22.076H21.7661C22.0101 22.0926 22.2537 22.0381 22.4675 21.9192C22.6812 21.8002 22.8559 21.6219 22.9704 21.4058C23.085 21.1898 23.1345 20.9451 23.113 20.7015C23.0914 20.4578 22.9998 20.2256 22.8491 20.033Z" stroke="#005D45" stroke-width="2" stroke-linecap="round" stroke-linejoin="round"/>
<path d="M16.094 22.076V23.076C16.1024 23.6085 16.0047 24.1374 15.8068 24.6318C15.6088 25.1262 15.3144 25.5763 14.9408 25.9559C14.5672 26.3355 14.1218 26.6369 13.6306 26.8427C13.1393 27.0484 12.612 27.1544 12.0794 27.1544C11.5469 27.1544 11.0196 27.0484 10.5284 26.8427C10.0371 26.6369 9.59172 26.3355 9.21811 25.9559C8.84449 25.5763 8.55013 25.1262 8.35215 24.6318C8.15418 24.1374 8.05655 23.6085 8.06495 23.076V22.076" stroke="#005D45" stroke-width="2" stroke-linecap="round" stroke-linejoin="round"/>
</g>
<defs>
<clipPath id="clip0_842_1114">
<rect width="24.158" height="28.094" fill="white"/>
</clipPath>
</defs>
</svg>
