<svg xmlns="http://www.w3.org/2000/svg" width="19.528" height="18.339" viewBox="0 0 19.528 18.339">
  <g id="Page1" transform="translate(0.25 0.25)">
    <g id="Icon-Set">
      <path id="briefcase" d="M221.839,211.73H205.189v-2.973a1.19,1.19,0,0,1,1.189-1.189h14.271a1.19,1.19,0,0,1,1.189,1.189v2.973Zm-9.514,1.784a1.177,1.177,0,0,1,.165-.595h2.049a1.177,1.177,0,0,1,.165.595,1.189,1.189,0,0,1-2.378,0Zm9.514,5.946a1.19,1.19,0,0,1-1.189,1.189H206.378a1.19,1.19,0,0,1-1.189-1.189v-6.541h6.031a2.335,2.335,0,0,0-.084.595,2.378,2.378,0,0,0,4.757,0,2.335,2.335,0,0,0-.084-.595h6.031v6.541Zm-10.7-13.676a.6.6,0,0,1,.595-.595H215.3a.6.6,0,0,1,.595.595v.595h-4.757v-.595Zm9.514.595h-3.568v-1.189A1.19,1.19,0,0,0,215.892,204h-4.757a1.19,1.19,0,0,0-1.189,1.189v1.189h-3.568A2.379,2.379,0,0,0,204,208.757v10.7a2.379,2.379,0,0,0,2.378,2.378h14.271a2.379,2.379,0,0,0,2.378-2.378v-10.7a2.379,2.379,0,0,0-2.378-2.378Z" transform="translate(-204 -204)" fill="#fff" stroke="#fff" stroke-width="0.5" fill-rule="evenodd"/>
    </g>
  </g>
</svg>
