<svg xmlns="http://www.w3.org/2000/svg" width="17.872" height="17.872" viewBox="0 0 17.872 17.872">
  <g id="data" transform="translate(19.122 -1.25) rotate(90)">
    <path id="Path_125098" data-name="Path 125098" d="M19.637,13.274A1.637,1.637,0,1,0,18,11.637,1.637,1.637,0,0,0,19.637,13.274Z" transform="translate(-2.903 -1.451)" fill="none" stroke="#fff" stroke-linecap="round" stroke-linejoin="round" stroke-width="1.5"/>
    <path id="Path_125099" data-name="Path 125099" d="M19.637,5.274A1.637,1.637,0,1,0,18,3.637,1.637,1.637,0,0,0,19.637,5.274Z" transform="translate(-2.903)" fill="none" stroke="#fff" stroke-linecap="round" stroke-linejoin="round" stroke-width="1.5"/>
    <path id="Path_125100" data-name="Path 125100" d="M19.637,21.274A1.637,1.637,0,1,0,18,19.637,1.637,1.637,0,0,0,19.637,21.274Z" transform="translate(-2.903 -2.903)" fill="none" stroke="#fff" stroke-linecap="round" stroke-linejoin="round" stroke-width="1.5"/>
    <path id="Path_125101" data-name="Path 125101" d="M3.637,13.274A1.637,1.637,0,1,0,2,11.637,1.637,1.637,0,0,0,3.637,13.274Z" transform="translate(0 -1.451)" fill="none" stroke="#fff" stroke-linecap="round" stroke-linejoin="round" stroke-width="1.5"/>
    <path id="Path_125102" data-name="Path 125102" d="M6,12h9.823" transform="translate(-0.726 -1.814)" fill="none" stroke="#fff" stroke-linecap="round" stroke-linejoin="round" stroke-width="1.5"/>
    <path id="Path_125103" data-name="Path 125103" d="M16.73,4H13.456A2.171,2.171,0,0,0,11,6.456v8.186A2.171,2.171,0,0,0,13.456,17.1H16.73" transform="translate(-1.633 -0.363)" fill="none" stroke="#fff" stroke-linecap="round" stroke-linejoin="round" stroke-width="1.5"/>
  </g>
</svg>
