<svg xmlns="http://www.w3.org/2000/svg" width="21.037" height="17.775" viewBox="0 0 21.037 17.775">
  <path id="folder" d="M19.626,12.138c0-.354-.341-.442-.584-.442H7.053a2.426,2.426,0,0,0-1.73.934l-3.24,4.583a.942.942,0,0,0-.2.5c0,.354.341.442.584.442H14.458a2.4,2.4,0,0,0,1.73-.947l3.24-4.583a.866.866,0,0,0,.2-.492ZM7.053,10.08h8.463V8.06a1.143,1.143,0,0,0-1.058-1.212H8.111A1.143,1.143,0,0,1,7.053,5.636V4.828A1.143,1.143,0,0,0,5.995,3.616H2.468A1.143,1.143,0,0,0,1.411,4.828V15.6L4.232,11.62a3.762,3.762,0,0,1,2.821-1.54Zm13.984,2.058a2.7,2.7,0,0,1-.507,1.515l-3.251,4.583a3.8,3.8,0,0,1-2.821,1.54H2.468A2.677,2.677,0,0,1,0,16.947V4.828A2.677,2.677,0,0,1,2.468,2H5.995A2.677,2.677,0,0,1,8.463,4.828v.4h5.995A2.677,2.677,0,0,1,16.926,8.06v2.02h2.116a1.93,1.93,0,0,1,1.829,1.2,2.233,2.233,0,0,1,.165.858Z" transform="translate(0 -2)" fill="#fff"/>
</svg>
