<svg width="291" height="71" viewBox="0 0 291 71" fill="none" xmlns="http://www.w3.org/2000/svg">
<g clip-path="url(#clip0_801_92)">
<path d="M6.16892 21.9386C6.79922 21.9386 7.24115 21.4507 7.24115 20.8573C7.24115 20.2639 6.79922 19.7797 6.16892 19.7797C5.53862 19.7797 5.09668 20.2675 5.09668 20.8573C5.09668 21.4471 5.53862 21.9386 6.16892 21.9386Z" fill="#005D45"/>
<path d="M3.13718 21.9386C3.74937 21.9386 4.20942 21.4507 4.20942 20.8573C4.20942 20.2639 3.74575 19.7797 3.13718 19.7797C2.48514 19.7797 2.06494 20.2675 2.06494 20.8573C2.06494 21.4471 2.48514 21.9386 3.13718 21.9386Z" fill="#005D45"/>
<path d="M18.677 26.1071C18.677 26.7005 19.1189 27.1665 19.8796 27.1665C20.6404 27.1665 21.1004 26.5731 21.1004 25.9177C21.1004 24.5015 19.6478 23.5258 18.0684 23.5258C15.4567 23.5258 13.1637 25.5573 13.1637 28.3715C13.1637 30.13 13.9642 31.568 15.2285 32.4127H9.54488C8.55595 32.3289 8.4509 31.2913 8.4509 30.7198V25.2369C8.4509 24.7928 8.47264 24.243 8.59942 23.6933H7.5453C7.39678 23.8426 7.44025 23.9263 7.39678 24.01C7.31346 24.2649 7.20841 24.5379 7.16495 24.5379C7.16495 24.5379 7.03816 24.4542 6.80633 24.3049C6.32092 23.9882 5.52037 23.4567 4.32134 23.4567C1.66973 23.4567 0.00341797 25.8486 0.00341797 28.2842C0.00341797 30.9091 1.66611 33.1954 3.87941 33.1954C5.66888 33.1954 6.61796 31.903 6.93311 30.9928C6.93311 32.9187 8.11402 33.1736 9.54488 33.1954H17.8837C19.1878 33.1954 20.1586 32.7731 20.9374 32.0086L20.4121 31.6481C19.8652 32.136 19.1696 32.409 18.264 32.409C16.1775 32.409 15.2755 30.5887 15.2755 28.1349C15.2755 25.5318 16.2645 24.1994 18.1409 24.1994C19.2131 24.1994 19.8036 24.6435 20.1006 25.2151C19.9521 25.1933 19.8253 25.1714 19.6804 25.1714C19.0501 25.1714 18.6915 25.51 18.6915 26.1034M6.42235 30.5741C6.08546 31.6955 5.17986 32.4782 4.14747 32.4782C3.2636 32.4782 1.91606 31.528 1.91606 28.4152C1.91606 26.2345 2.67314 24.203 4.31772 24.203C6.42235 24.203 6.65418 26.2126 6.65418 28.0111C6.65418 29.1324 6.61071 29.937 6.42235 30.5705" fill="#005D45"/>
<path d="M25.4984 33.1954V19.6704L22.7417 20.1983C23.6256 20.4932 23.6473 20.6425 23.6473 21.1303V33.1918H25.502L25.4984 33.1954Z" fill="#005D45"/>
<path d="M32.0911 23.7589L29.291 24.2868C30.2183 24.5853 30.2401 24.7309 30.2401 25.2406V30.6179C30.0734 34.5971 28.5557 36.0971 25.502 36.9235C26.2808 36.9854 26.7444 37.0072 27.0197 37.0072C31.7361 37.0072 32.0948 32.8168 32.0948 29.0269V23.7552L32.0911 23.7589Z" fill="#005D45"/>
<path d="M37.0173 22.0879C37.6078 22.0879 38.1113 21.6 38.1113 20.9884C38.1113 20.3768 37.6078 19.8889 37.0173 19.8889C36.4269 19.8889 35.9233 20.3549 35.9233 20.9884C35.9233 21.6219 36.4269 22.0879 37.0173 22.0879Z" fill="#005D45"/>
<path d="M42.9112 21.134V30.3812C42.9112 31.63 42.4258 32.4127 41.2485 32.4127H38.1115C38.2818 31.3314 38.3216 30.1701 38.3216 29.0269V23.7552L35.5432 24.2831C36.4488 24.5816 36.4706 24.7273 36.4706 25.237V30.6142C36.322 34.5934 34.8079 36.097 31.7324 36.9198C32.5112 36.9817 32.9966 37.0036 33.2502 37.0036C36.1989 37.0036 37.4414 35.3507 37.9449 33.1954H41.6941C43.4836 33.1954 44.7695 32.2234 44.7695 30.4431V19.6704L41.9911 20.1983C42.9185 20.4932 42.9185 20.6425 42.9185 21.1303" fill="#005D45"/>
<path d="M47.5662 21.134V33.1954H49.4209V19.6704L46.6606 20.1983C47.5445 20.4932 47.5662 20.6425 47.5662 21.1303" fill="#005D45"/>
<path d="M51.7354 29.8971C51.7354 31.9285 53.5466 33.1554 54.9593 33.1991H55.0644C56.6003 33.1991 57.2342 32.3945 57.6761 31.6955C57.2777 35.6529 54.9195 36.5012 53.1481 36.9017L52.6446 36.9854C53.4017 37.0473 54.0754 37.091 54.3725 37.091C56.6256 37.091 59.491 36.2027 59.491 29.0269V23.8427H57.8898C54.3109 23.8427 51.739 26.2127 51.739 29.8934M57.6327 29.3655C57.6327 31.0111 56.6691 32.5292 55.4121 32.5402C54.2167 32.4892 53.5683 31.0147 53.5683 29.7696C53.5683 26.6168 55.5461 24.498 57.4008 24.498H57.6327V29.3655Z" fill="#005D45"/>
<path d="M69.6556 23.4603C66.8555 23.4603 65.2109 25.8522 65.2109 28.3497C65.2109 30.8472 66.8555 33.1954 69.6556 33.1954C72.4558 33.1954 74.1004 30.8035 74.1004 28.3497C74.1004 25.8959 72.4377 23.4603 69.6556 23.4603ZM69.6556 32.4782C67.9712 32.4782 67.2141 30.9965 67.2141 28.3497C67.2141 25.703 67.9712 24.1994 69.6556 24.1994C71.3401 24.1994 72.079 25.6593 72.079 28.3497C72.079 31.0402 71.322 32.4782 69.6556 32.4782Z" fill="#005D45"/>
<path d="M85.0039 35.1432C84.3736 35.1432 83.9316 35.6092 83.9316 36.2026C83.9316 36.796 84.3736 37.2839 85.0039 37.2839C85.6342 37.2839 86.0761 36.796 86.0761 36.2026C86.0761 35.6092 85.6342 35.1432 85.0039 35.1432Z" fill="#005D45"/>
<path d="M81.9716 35.1432C81.3196 35.1432 80.8994 35.6092 80.8994 36.2026C80.8994 36.796 81.3196 37.2839 81.9716 37.2839C82.5838 37.2839 83.0439 36.796 83.0439 36.2026C83.0439 35.6092 82.5802 35.1432 81.9716 35.1432Z" fill="#005D45"/>
<path d="M105.134 21.1121V30.3812C105.134 31.6081 104.648 32.4127 103.554 32.4127H101.931C100.982 32.4127 100.247 31.5244 99.8883 30.5305C99.9317 30.2975 99.9499 30.0427 99.9499 29.7696C99.9499 27.8219 98.5806 25.2406 96.034 25.2406C92.9368 25.2406 92.4116 27.1884 91.9045 29.1543C91.6292 30.2138 91.2923 31.4807 90.662 32.096C90.4084 32.3072 90.0498 32.3727 89.8614 32.4127H88.1987C86.7244 32.4127 85.8405 30.4868 85.8405 29.1543V23.7589L83.0621 24.2868C83.9062 24.5817 83.9895 24.6691 83.9895 25.1351V30.4468C83.9895 31.6737 83.5258 32.4164 82.4101 32.4164H80.7691C79.8853 32.3545 79.3781 31.7611 79.3781 30.6397V19.7178L76.0093 19.867V20.566C77.2083 20.566 77.5271 20.7554 77.5271 21.2651V30.556C77.5271 32.5656 78.8529 33.2027 80.6424 33.2027H82.7905C84.0945 33.2027 85.4022 32.8205 85.9057 31.5499C86.5578 32.5438 87.4634 33.2027 88.5392 33.2027H89.8433C90.959 33.2027 91.5712 32.8423 92.053 32.3144C92.6833 33.119 93.5672 34.1129 95.4834 34.1129C97.5265 34.1129 98.8305 33.0753 99.4427 31.7865C100.16 32.7185 100.961 33.2027 102.348 33.2027H103.884C105.673 33.2027 106.959 32.2307 106.959 30.4504V19.6559L104.159 20.1838C105.105 20.4823 105.126 20.6279 105.126 21.1158M95.5522 33.3666C94.2482 33.3666 93.2991 32.2889 92.7521 31.6118C92.7304 31.5681 92.6905 31.5062 92.6471 31.4844C93.0491 30.7235 93.2375 29.9407 93.4259 29.2199L93.4693 29.0925C93.8895 27.4396 94.3134 25.9178 95.6609 25.9178H95.7442C97.2801 25.9797 98.0191 27.8656 98.0191 29.8752C98.0191 31.8848 96.8817 33.3666 95.5559 33.3666" fill="#005D45"/>
<path d="M109.766 21.134V33.1954H111.621V19.6704L108.861 20.1983C109.745 20.4932 109.766 20.6425 109.766 21.1303" fill="#005D45"/>
<path d="M113.933 29.8971C113.933 31.9285 115.744 33.1554 117.157 33.1991H117.262C118.798 33.1991 119.431 32.3945 119.873 31.6955C119.475 35.6529 117.113 36.5012 115.345 36.9017L114.842 36.9854C115.599 37.0473 116.273 37.091 116.57 37.091C118.823 37.091 121.688 36.2027 121.688 29.0269V23.8427H120.087C116.508 23.8427 113.936 26.2127 113.936 29.8934M119.83 29.3655C119.83 31.0111 118.866 32.5292 117.609 32.5402C116.414 32.4892 115.766 31.0147 115.766 29.7696C115.766 26.6168 117.743 24.498 119.598 24.498H119.83V29.3655Z" fill="#005D45"/>
<path d="M130.57 21.9386C131.182 21.9386 131.643 21.4507 131.643 20.8573C131.643 20.2639 131.179 19.7797 130.57 19.7797C129.918 19.7797 129.498 20.2675 129.498 20.8573C129.498 21.4471 129.918 21.9386 130.57 21.9386Z" fill="#005D45"/>
<path d="M133.602 21.9386C134.232 21.9386 134.674 21.4507 134.674 20.8573C134.674 20.2639 134.232 19.7797 133.602 19.7797C132.972 19.7797 132.53 20.2675 132.53 20.8573C132.53 21.4471 132.972 21.9386 133.602 21.9386Z" fill="#005D45"/>
<path d="M143.854 20.8391H142.865C142.086 20.8391 141.561 19.867 141.561 19.2299C141.561 18.8076 141.814 18.3197 142.173 18.3197C142.278 18.3197 142.448 18.3416 142.531 18.4654C142.365 18.6146 142.216 18.8476 142.216 18.9751C142.216 19.2918 142.51 19.5029 142.912 19.5029C143.314 19.5029 143.607 19.3755 143.607 18.8877C143.607 18.2542 142.995 17.7664 142.216 17.7664C141.1 17.7664 140.467 18.5491 140.467 19.4811C140.467 20.009 140.887 20.5187 141.267 20.8354H140.318L140.064 21.5126H143.854V20.8354V20.8391Z" fill="#005D45"/>
<path d="M149.476 35.1432C148.845 35.1432 148.403 35.6092 148.403 36.2026C148.403 36.796 148.845 37.2839 149.476 37.2839C150.106 37.2839 150.548 36.796 150.548 36.2026C150.548 35.6092 150.106 35.1432 149.476 35.1432Z" fill="#005D45"/>
<path d="M146.444 35.1432C145.792 35.1432 145.372 35.6092 145.372 36.2026C145.372 36.796 145.792 37.2839 146.444 37.2839C147.056 37.2839 147.516 36.796 147.516 36.2026C147.516 35.6092 147.052 35.1432 146.444 35.1432Z" fill="#005D45"/>
<path d="M156.3 34.892C155.71 34.892 155.206 35.3798 155.206 35.9914C155.206 36.6031 155.71 37.0909 156.3 37.0909C156.89 37.0909 157.394 36.6249 157.394 35.9914C157.394 35.358 156.89 34.892 156.3 34.892Z" fill="#005D45"/>
<path d="M162.574 21.134V30.3813C162.574 31.63 162.089 32.4128 160.912 32.4128H160.238C158.763 32.4128 157.88 30.4869 157.88 29.1544V23.7589L155.101 24.2868C155.945 24.5817 156.029 24.6691 156.029 25.1351V30.4468C156.029 31.6737 155.565 32.4164 154.449 32.4164H152.681C151.207 32.4164 150.323 30.4905 150.323 29.158V23.7626L147.545 24.2905C148.389 24.5854 148.472 24.6727 148.472 25.1387V30.4504C148.472 31.6773 148.008 32.42 146.893 32.42H145.712C144.238 32.42 143.354 30.4941 143.354 29.1617V23.7662L140.575 24.2941C141.419 24.589 141.503 24.6764 141.503 25.1424V30.4541C141.503 31.681 141.039 32.4237 139.923 32.4237H136.975C135.986 32.3399 135.881 31.3024 135.881 30.7308V25.248C135.881 24.8038 135.902 24.2541 136.029 23.7043H134.975C134.826 23.8536 134.87 23.9373 134.826 24.0211C134.743 24.2759 134.638 24.5489 134.595 24.5489C134.595 24.5489 134.468 24.4652 134.236 24.3159C133.751 23.9992 132.95 23.4677 131.751 23.4677C129.099 23.4677 127.433 25.8596 127.433 28.2952C127.433 30.9201 129.096 33.2064 131.309 33.2064C133.099 33.2064 134.048 31.914 134.363 31.0038C134.363 32.9297 135.544 33.1846 136.975 33.2064H140.3C141.604 33.2064 142.912 32.8241 143.415 31.5536C144.042 32.5074 144.904 33.1445 145.922 33.1955V33.2064H147.269C148.574 33.2064 149.881 32.8241 150.385 31.5536C151.037 32.5475 151.942 33.2064 153.018 33.2064H154.829C156.134 33.2064 157.441 32.8241 157.945 31.5536C158.571 32.5074 159.434 33.1445 160.451 33.1955V33.2064H161.357C163.147 33.2064 164.433 32.2344 164.433 30.4541V19.6814L161.654 20.2093C162.581 20.5042 162.581 20.6534 162.581 21.1413M133.852 30.5742C133.515 31.6955 132.61 32.4783 131.577 32.4783C130.693 32.4783 129.346 31.5281 129.346 28.4153C129.346 26.2346 130.103 24.2031 131.747 24.2031C133.852 24.2031 134.084 26.2127 134.084 28.0112C134.084 29.1325 134.04 29.9371 133.852 30.5706" fill="#005D45"/>
<path d="M167.229 21.134V33.1954H169.084V19.6704L166.323 20.1983C167.207 20.4932 167.229 20.6425 167.229 21.1303" fill="#005D45"/>
<path d="M180.81 21.5162C181.422 21.5162 181.882 21.0284 181.882 20.4349C181.882 19.8415 181.418 19.3573 180.81 19.3573C180.201 19.3573 179.737 19.8233 179.737 20.4349C179.737 21.0466 180.179 21.5162 180.81 21.5162Z" fill="#005D45"/>
<path d="M179.252 23.4603C176.452 23.4603 174.807 25.8522 174.807 28.3497C174.807 30.8472 176.448 33.1954 179.252 33.1954C182.056 33.1954 183.697 30.8035 183.697 28.3497C183.697 25.8959 182.034 23.4603 179.252 23.4603ZM179.252 32.4782C177.567 32.4782 176.81 30.9965 176.81 28.3497C176.81 25.703 177.567 24.1994 179.252 24.1994C180.936 24.1994 181.675 25.6593 181.675 28.3497C181.675 31.0402 180.918 32.4782 179.252 32.4782Z" fill="#005D45"/>
<path d="M177.756 21.5162C178.386 21.5162 178.828 21.0284 178.828 20.4349C178.828 19.8415 178.386 19.3573 177.756 19.3573C177.125 19.3573 176.702 19.8233 176.702 20.4349C176.702 21.0466 177.122 21.5162 177.756 21.5162Z" fill="#005D45"/>
<path d="M188.431 25.2406V30.6179C188.264 34.5971 186.747 36.1007 183.693 36.9235C184.472 36.9854 184.935 37.0072 185.211 37.0072C189.927 37.0072 190.286 32.8168 190.286 29.0269V23.7552L187.486 24.2831C188.413 24.5817 188.435 24.7273 188.435 25.237" fill="#005D45"/>
<path d="M194.937 33.1954V19.6704L192.18 20.1983C193.064 20.4932 193.086 20.6425 193.086 21.1303V33.1918H194.94L194.937 33.1954Z" fill="#005D45"/>
<path d="M199.675 25.1351V30.5123C199.508 34.4915 197.991 35.9915 194.937 36.8179C195.716 36.8798 196.18 36.9235 196.455 36.9235C201.171 36.9235 201.53 32.7113 201.53 28.925V23.6752L198.73 24.2031C199.657 24.4798 199.679 24.6472 199.679 25.1351" fill="#005D45"/>
<path d="M200.476 19.3573C199.885 19.3573 199.382 19.8233 199.382 20.4568C199.382 21.0903 199.885 21.5563 200.476 21.5563C201.066 21.5563 201.548 21.0684 201.548 20.4568C201.548 19.8451 201.045 19.3573 200.476 19.3573Z" fill="#005D45"/>
<path d="M209.992 23.8426C206.413 23.8426 203.841 26.2127 203.841 29.8934C203.841 31.9249 205.652 33.1518 207.065 33.1955H207.17C208.706 33.1955 209.34 32.3909 209.782 31.6919C209.383 35.6493 207.021 36.4975 205.254 36.898L204.75 36.9817C205.507 37.0436 206.181 37.0873 206.478 37.0873C208.731 37.0873 211.596 36.199 211.596 29.0233V23.839H209.995L209.992 23.8426ZM209.738 29.3655C209.738 31.0111 208.775 32.5292 207.518 32.5401C206.322 32.4892 205.674 31.0147 205.674 29.7696C205.674 26.6168 207.652 24.4979 209.506 24.4979H209.738V29.3655Z" fill="#005D45"/>
<path d="M1.11933 44.6162C1.11933 43.5604 0.959942 43.6077 0 43.4148V43.1636H2.56467L4.79971 49.4291H4.82144L7.01301 43.1636H8.53805V50.8017H7.40785V44.0483H7.38612L5.01343 50.8017H4.21288L1.85106 44.1174H1.82932V50.8017H1.11933V44.6162Z" fill="#005D45"/>
<path d="M10.3528 46.9972C10.3528 46.2035 10.1717 46.0106 9.4834 45.9887V45.763L11.483 45.399V50.8017H10.3528V47.0008V46.9972ZM10.2296 43.7861C10.2296 43.4002 10.5448 43.0835 10.9396 43.0835C11.3345 43.0835 11.6605 43.3893 11.6605 43.7861C11.6605 44.183 11.3236 44.4997 10.9287 44.4997C10.5339 44.4997 10.2296 44.183 10.2296 43.7861Z" fill="#005D45"/>
<path d="M13.2111 46.9972C13.2111 46.2035 13.0191 46.0106 12.3091 45.9887V45.763L14.3413 45.3989V46.8515H14.363C14.5332 46.4547 15.1309 45.3989 16.2467 45.3989C17.2754 45.3989 17.6123 46.1271 17.6123 46.9972V50.798H16.4821V47.86C16.4821 46.9644 16.4821 46.1707 15.725 46.1707C14.9679 46.1707 14.3376 47.2265 14.3376 48.0311V50.8017H13.2074V47.0008L13.2111 46.9972Z" fill="#005D45"/>
<path d="M19.3186 46.9972C19.3186 46.2035 19.1375 46.0106 18.4492 45.9887V45.763L20.4488 45.399V50.8017H19.3186V47.0008V46.9972ZM19.1954 43.7861C19.1954 43.4002 19.5106 43.0835 19.9054 43.0835C20.3003 43.0835 20.6263 43.3893 20.6263 43.7861C20.6263 44.183 20.2894 44.4997 19.8946 44.4997C19.4997 44.4997 19.1954 44.183 19.1954 43.7861Z" fill="#005D45"/>
<path d="M24.705 46.4438C24.5348 46.3309 23.995 45.8977 23.3611 45.8977C22.9989 45.8977 22.5714 46.0324 22.5714 46.5202C22.5714 47.5979 25.0455 47.6197 25.0455 49.3563C25.0455 50.4703 24.1327 50.9218 23.0133 50.9218C22.3251 50.9218 21.8288 50.7871 21.568 50.7179V49.8332C21.894 50.0626 22.4265 50.423 23.0568 50.423C23.7668 50.423 24.0276 50.0589 24.0276 49.6621C24.0276 48.5481 21.5571 48.4825 21.5571 46.9171C21.5571 46.1015 22.1114 45.3953 23.4408 45.3953C24.0168 45.3953 24.513 45.5445 24.705 45.5882V46.4401V46.4438Z" fill="#005D45"/>
<path d="M28.9286 50.8344C28.6786 50.8818 28.4214 50.9254 28.1715 50.9254C27.0884 50.9254 26.4545 50.7543 26.4545 49.4619V45.9778H25.5742V45.5227H26.4545V44.6271L27.5847 43.6187V45.5264H29.0626V45.9814H27.5847V49.2835C27.5847 50.0772 27.6426 50.4303 28.512 50.4303C28.646 50.4303 28.7946 50.4194 28.9286 50.3866V50.8417V50.8344Z" fill="#005D45"/>
<path d="M29.9902 46.9972C29.9902 46.2035 29.8091 46.0106 29.0991 45.9887V45.763L31.1204 45.3989V46.8952H31.1422C31.3016 46.3746 31.6493 45.3989 32.5549 45.3989C32.7578 45.3989 32.9715 45.4208 33.1635 45.4572V46.5348C32.9824 46.4766 32.7795 46.4001 32.5875 46.4001C31.4464 46.4001 31.1204 47.2957 31.1204 48.093V50.8053H29.9902V47.0045V46.9972Z" fill="#005D45"/>
<path d="M36.4019 51.2312C36.0505 52.1378 35.6557 53.1135 34.4277 53.1135C33.1997 53.1135 32.9027 52.1705 32.8592 51.6608H34.156C34.156 51.9994 34.214 52.5018 34.7537 52.5018C35.25 52.5018 35.4999 51.923 35.6557 51.5152L35.8042 51.1293L33.9858 46.7714C33.7141 46.1016 33.5583 45.7848 32.7759 45.7484V45.5227H34.6958L36.3657 49.6985L37.9922 45.5227H38.637L36.4019 51.2312Z" fill="#005D45"/>
<path d="M42.4658 48.1658C42.4658 46.269 43.2555 45.3953 44.9037 45.3953C46.5519 45.3953 47.3416 46.5311 47.3416 48.1658C47.3416 50.0153 46.5736 50.9218 44.9037 50.9218C43.0853 50.9218 42.4658 49.7531 42.4658 48.1658ZM44.9037 50.5395C46.0122 50.5395 46.0991 49.3017 46.0991 48.1694C46.0991 47.1246 45.9977 45.7848 44.9037 45.7848C43.8097 45.7848 43.7083 47.1683 43.7083 48.1694C43.7083 49.1087 43.788 50.5395 44.9037 50.5395Z" fill="#005D45"/>
<path d="M48.7866 45.9778H47.8701V45.5227H48.7866V44.7618C48.7866 43.8553 49.1814 42.8541 50.5362 42.8541C51.9816 42.8541 52.4778 43.3638 52.601 44.1939H51.3368C51.3259 43.7861 51.1774 43.24 50.6159 43.24C49.9603 43.24 49.9168 43.9645 49.9168 44.4997V45.5227H51.4201V45.9778H49.9168V50.8017H48.7866V45.9778Z" fill="#005D45"/>
<path d="M55.6728 44.7072C55.6728 43.5823 55.6402 43.5823 54.6006 43.4148V43.1636H60.0089L60.0415 44.8419H59.7263C59.7263 43.9354 59.2518 43.6951 58.5056 43.6951H57.6253C57.0602 43.6951 56.9153 43.7388 56.9153 44.2849V46.5421H58.281C59.0598 46.5421 59.1395 46.0433 59.2083 45.6683H59.5235V48.053H59.2083C59.2083 47.4413 58.9584 47.0773 58.281 47.0773H56.9153V49.6075C56.9153 50.2446 57.0602 50.2665 57.6253 50.2665H58.8787C59.5235 50.2665 59.8277 50.0408 59.8966 49.1524H60.2117L60.1755 50.798H55.6728V44.7036V44.7072Z" fill="#005D45"/>
<path d="M61.545 46.9972C61.545 46.2035 61.3531 46.0106 60.6431 45.9887V45.763L62.6752 45.3989V46.8515H62.697C62.8672 46.4547 63.4649 45.3989 64.5843 45.3989C65.613 45.3989 65.9499 46.1271 65.9499 46.9972V50.798H64.8197V47.86C64.8197 46.9644 64.8197 46.1707 64.0626 46.1707C63.3055 46.1707 62.6752 47.2265 62.6752 48.0311V50.8017H61.545V47.0008V46.9972Z" fill="#005D45"/>
<path d="M67.5291 46.7714C67.2466 46.0106 67.1234 45.8176 66.3555 45.7484V45.5227H68.2428L69.8221 49.5165L71.358 45.5227H72.0028L69.9815 50.798H69.1556L67.5291 46.7678V46.7714Z" fill="#005D45"/>
<path d="M73.0749 46.9972C73.0749 46.2035 72.8938 46.0106 72.2056 45.9887V45.763L74.2051 45.399V50.8017H73.0749V47.0008V46.9972ZM72.9482 43.7861C72.9482 43.4002 73.2633 43.0835 73.6582 43.0835C74.053 43.0835 74.379 43.3893 74.379 43.7861C74.379 44.183 74.0421 44.4997 73.6473 44.4997C73.2524 44.4997 72.9482 44.183 72.9482 43.7861Z" fill="#005D45"/>
<path d="M75.8608 46.9972C75.8608 46.2035 75.6797 46.0106 74.9697 45.9887V45.763L76.991 45.3989V46.8952H77.0128C77.1722 46.3746 77.5199 45.3989 78.4255 45.3989C78.6284 45.3989 78.8421 45.4208 79.0341 45.4572V46.5348C78.853 46.4766 78.6501 46.4001 78.4581 46.4001C77.3171 46.4001 76.991 47.2957 76.991 48.093V50.8053H75.8608V47.0045V46.9972Z" fill="#005D45"/>
<path d="M79.1606 48.1658C79.1606 46.269 79.9503 45.3953 81.5985 45.3953C83.2467 45.3953 84.0364 46.5311 84.0364 48.1658C84.0364 50.0153 83.2685 50.9218 81.5985 50.9218C79.7801 50.9218 79.1606 49.7531 79.1606 48.1658ZM81.5985 50.5395C82.707 50.5395 82.7939 49.3017 82.7939 48.1694C82.7939 47.1246 82.6925 45.7848 81.5985 45.7848C80.5046 45.7848 80.4031 47.1683 80.4031 48.1694C80.4031 49.1087 80.4828 50.5395 81.5985 50.5395Z" fill="#005D45"/>
<path d="M85.3151 46.9972C85.3151 46.2035 85.1231 46.0106 84.4131 45.9887V45.763L86.4453 45.3989V46.8515H86.467C86.6373 46.4547 87.235 45.3989 88.3543 45.3989C89.3831 45.3989 89.7199 46.1271 89.7199 46.9972V50.798H88.5897V47.86C88.5897 46.9644 88.5897 46.1707 87.8327 46.1707C87.0756 46.1707 86.4453 47.2265 86.4453 48.0311V50.8017H85.3151V47.0008V46.9972Z" fill="#005D45"/>
<path d="M91.3103 46.9972C91.3103 46.2035 91.1292 46.0106 90.4409 45.9887V45.763L92.4622 45.3989V46.7496H92.484C92.676 46.3528 93.1976 45.3989 94.2119 45.3989C95.2261 45.3989 95.5232 46.1598 95.5992 46.6695H95.621C95.8564 46.2254 96.2875 45.3989 97.3054 45.3989C98.7399 45.3989 98.7399 46.7168 98.7399 47.5214V50.8017H97.6097V47.7035C97.6097 47.0008 97.6097 46.1707 96.8526 46.1707C95.9941 46.1707 95.5884 47.3612 95.5884 48.1767V50.798H94.4582V47.86C94.4582 46.9644 94.4582 46.1707 93.7011 46.1707C92.944 46.1707 92.4369 47.2265 92.4369 48.0311V50.8017H91.3067V47.0008L91.3103 46.9972Z" fill="#005D45"/>
<path d="M104.134 50.6196C103.92 50.6997 103.322 50.9254 102.543 50.9254C100.816 50.9254 99.7759 49.8696 99.7759 47.9765C99.7759 46.1853 100.634 45.3989 102.149 45.3989C104.079 45.3989 104.239 46.8079 104.239 47.5651H101.022C101.022 48.701 101.486 50.3102 103.076 50.3102C103.55 50.3102 103.945 50.1973 104.137 50.1172V50.616L104.134 50.6196ZM103.109 47.11C103.109 46.8479 103.087 45.7812 102.105 45.7812C101.257 45.7812 101.022 46.6768 101.022 47.11H103.112H103.109Z" fill="#005D45"/>
<path d="M105.355 46.9972C105.355 46.2035 105.163 46.0106 104.453 45.9887V45.763L106.485 45.3989V46.8515H106.507C106.677 46.4547 107.275 45.3989 108.39 45.3989C109.419 45.3989 109.756 46.1271 109.756 46.9972V50.798H108.626V47.86C108.626 46.9644 108.626 46.1707 107.869 46.1707C107.111 46.1707 106.481 47.2265 106.481 48.0311V50.8017H105.351V47.0008L105.355 46.9972Z" fill="#005D45"/>
<path d="M114.027 50.8344C113.777 50.8818 113.52 50.9254 113.27 50.9254C112.187 50.9254 111.553 50.7543 111.553 49.4619V45.9778H110.672V45.5227H111.553V44.6271L112.683 43.6187V45.5264H114.161V45.9814H112.683V49.2835C112.683 50.0772 112.741 50.4303 113.61 50.4303C113.744 50.4303 113.893 50.4194 114.027 50.3866V50.8417V50.8344Z" fill="#005D45"/>
<path d="M119.123 44.6162C118.888 43.5823 118.783 43.5932 117.848 43.4148V43.1636H119.891L121.384 49.349H121.405L123.188 43.1636H123.966L125.999 49.349H126.02L127.263 43.1636H127.998L126.408 50.8017H125.336L123.372 44.7545H123.351L121.612 50.8017H120.561L119.127 44.6162H119.123Z" fill="#005D45"/>
<path d="M131.396 50.1281C131.193 50.3684 130.809 50.9218 129.94 50.9218C129.071 50.9218 128.426 50.2847 128.426 49.6184C128.426 48.0202 130.672 47.8928 131.396 47.8709V47.2921C131.396 46.5785 131.396 45.7848 130.683 45.7848C129.969 45.7848 129.893 46.4438 129.893 46.9426H128.549C128.672 46.1926 129.045 45.3989 130.672 45.3989C132.298 45.3989 132.523 46.229 132.523 47.3503V50.798H131.393V50.1281H131.396ZM131.396 48.2787C130.99 48.2896 129.668 48.3479 129.668 49.4255C129.668 49.9461 129.929 50.3102 130.346 50.3102C131.001 50.3102 131.396 49.7095 131.396 48.9376V48.2787Z" fill="#005D45"/>
<path d="M136.714 50.8344C136.464 50.8818 136.207 50.9254 135.957 50.9254C134.874 50.9254 134.24 50.7543 134.24 49.4619V45.9778H133.359V45.5227H134.24V44.6271L135.37 43.6187V45.5264H136.848V45.9814H135.37V49.2835C135.37 50.0772 135.428 50.4303 136.297 50.4303C136.431 50.4303 136.58 50.4194 136.714 50.3866V50.8417V50.8344Z" fill="#005D45"/>
<path d="M141.626 50.6196C141.412 50.6997 140.814 50.9254 140.036 50.9254C138.308 50.9254 137.268 49.8696 137.268 47.9765C137.268 46.1853 138.127 45.3989 139.641 45.3989C141.571 45.3989 141.731 46.8079 141.731 47.5651H138.514C138.514 48.701 138.978 50.3102 140.568 50.3102C141.043 50.3102 141.437 50.1973 141.629 50.1172V50.616L141.626 50.6196ZM140.597 47.11C140.597 46.8479 140.575 45.7812 139.594 45.7812C138.746 45.7812 138.511 46.6768 138.511 47.11H140.601H140.597Z" fill="#005D45"/>
<path d="M142.778 46.9972C142.778 46.2035 142.597 46.0106 141.887 45.9887V45.763L143.908 45.3989V46.8952H143.93C144.089 46.3746 144.437 45.3989 145.343 45.3989C145.545 45.3989 145.759 45.4208 145.951 45.4572V46.5348C145.77 46.4766 145.567 46.4001 145.375 46.4001C144.234 46.4001 143.908 47.2957 143.908 48.093V50.8053H142.778V47.0045V46.9972Z" fill="#005D45"/>
<path d="M162.984 44.6162C163.053 44.4232 163.176 44.0264 163.176 43.9463C163.176 43.4912 162.759 43.4803 162.306 43.4148V43.1636H164.429L167.186 50.8017H166.012L165.164 48.4425H162.285L161.437 50.8017H160.738L162.984 44.6162ZM162.477 47.9073H164.972L163.686 44.5944L162.48 47.9073H162.477Z" fill="#005D45"/>
<path d="M172.141 50.9691C172.141 52.1378 171.927 53.2154 169.95 53.2154C168.562 53.2154 167.591 52.895 167.591 51.6281H168.867C168.867 52.105 169.011 52.8295 169.917 52.8295C171.011 52.8295 171.011 51.9557 171.011 51.3332V50.0043H170.989C170.786 50.3429 170.482 50.798 169.566 50.798C168.142 50.798 167.581 49.6075 167.581 48.2787C167.581 46.8151 168.023 45.3953 169.58 45.3953C170.392 45.3953 170.797 45.8722 170.993 46.178H171.015V45.519H173.036V45.7448C172.674 45.7448 172.145 45.803 172.145 46.5493V50.9618L172.141 50.9691ZM171.011 47.4413C171.011 46.7241 170.649 46.0105 169.95 46.0105C168.921 46.0105 168.819 47.292 168.819 48.1221C168.819 48.9522 168.932 50.1864 169.859 50.1864C170.83 50.1864 171.011 49.1888 171.011 48.5626V47.4377V47.4413Z" fill="#005D45"/>
<path d="M173.869 46.9972C173.869 46.2035 173.688 46.0106 172.978 45.9887V45.763L174.999 45.3989V46.8952H175.021C175.18 46.3746 175.528 45.3989 176.434 45.3989C176.637 45.3989 176.85 45.4208 177.042 45.4572V46.5348C176.861 46.4766 176.658 46.4001 176.466 46.4001C175.325 46.4001 174.999 47.2957 174.999 48.093V50.8053H173.869V47.0045V46.9972Z" fill="#005D45"/>
<path d="M177.955 46.9972C177.955 46.2035 177.774 46.0106 177.086 45.9887V45.763L179.086 45.399V50.8017H177.955V47.0008V46.9972ZM177.832 43.7861C177.832 43.4002 178.147 43.0835 178.542 43.0835C178.937 43.0835 179.263 43.3893 179.263 43.7861C179.263 44.183 178.926 44.4997 178.531 44.4997C178.136 44.4997 177.832 44.183 177.832 43.7861Z" fill="#005D45"/>
<path d="M184.359 50.6524C183.954 50.798 183.693 50.9254 182.758 50.9254C181.179 50.9254 180.241 49.8005 180.241 48.0894C180.241 46.5348 180.871 45.3989 182.487 45.3989C183.74 45.3989 184.566 46.036 184.566 46.9535H183.233C183.233 46.4875 183.121 45.7848 182.421 45.7848C181.653 45.7848 181.483 46.6258 181.483 47.7144C181.483 49.3927 182.251 50.3138 183.28 50.3138C183.631 50.3138 184.091 50.2446 184.363 50.1536V50.6524H184.359Z" fill="#005D45"/>
<path d="M188.681 49.5165H188.66C188.468 50.0152 188.004 50.9218 186.91 50.9218C185.396 50.9218 185.396 49.4473 185.396 48.6063V46.9935C185.396 46.1998 185.215 46.0069 184.526 45.985V45.7593L186.526 45.3953V48.8102C186.526 49.8441 186.91 50.15 187.453 50.15C188.189 50.15 188.685 49.1852 188.685 48.2423V46.9935C188.685 46.1998 188.493 46.0069 187.816 45.985V45.7593L189.815 45.3953V50.798H188.685V49.5165H188.681Z" fill="#005D45"/>
<path d="M191.3 44.3978C191.3 43.5932 191.108 43.4002 190.441 43.3638V43.1381L192.427 42.8541V50.798H191.296V44.3978H191.3Z" fill="#005D45"/>
<path d="M196.777 50.8344C196.527 50.8818 196.27 50.9254 196.02 50.9254C194.937 50.9254 194.303 50.7543 194.303 49.4619V45.9778H193.423V45.5227H194.303V44.6271L195.433 43.6187V45.5264H196.911V45.9814H195.433V49.2835C195.433 50.0772 195.491 50.4303 196.361 50.4303C196.495 50.4303 196.643 50.4194 196.777 50.3866V50.8417V50.8344Z" fill="#005D45"/>
<path d="M201.193 49.5165H201.171C200.979 50.0152 200.516 50.9218 199.422 50.9218C197.907 50.9218 197.907 49.4473 197.907 48.6063V46.9935C197.907 46.1998 197.726 46.0069 197.038 45.985V45.7593L199.038 45.3953V48.8102C199.038 49.8441 199.422 50.15 199.965 50.15C200.7 50.15 201.197 49.1852 201.197 48.2423V46.9935C201.197 46.1998 201.005 46.0069 200.327 45.985V45.7593L202.327 45.3953V50.798H201.197V49.5165H201.193Z" fill="#005D45"/>
<path d="M203.888 46.9972C203.888 46.2035 203.707 46.0106 202.997 45.9887V45.763L205.018 45.3989V46.8952H205.04C205.2 46.3746 205.547 45.3989 206.453 45.3989C206.656 45.3989 206.869 45.4208 207.061 45.4572V46.5348C206.88 46.4766 206.677 46.4001 206.485 46.4001C205.344 46.4001 205.018 47.2957 205.018 48.093V50.8053H203.888V47.0045V46.9972Z" fill="#005D45"/>
<path d="M211.492 50.6196C211.278 50.6997 210.68 50.9254 209.901 50.9254C208.173 50.9254 207.134 49.8696 207.134 47.9765C207.134 46.1853 207.992 45.3989 209.506 45.3989C211.437 45.3989 211.597 46.8079 211.597 47.5651H208.38C208.38 48.701 208.844 50.3102 210.434 50.3102C210.908 50.3102 211.303 50.1973 211.495 50.1172V50.616L211.492 50.6196ZM210.463 47.11C210.463 46.8479 210.441 45.7812 209.459 45.7812C208.612 45.7812 208.376 46.6768 208.376 47.11H210.466H210.463Z" fill="#005D45"/>
<path d="M156.854 49.5275C156.854 49.5275 156.811 49.5347 156.699 49.6549C156.532 49.826 156.387 49.9498 156.257 50.0262C156.065 50.1282 155.757 50.11 155.434 49.9024C155.253 49.7859 155.058 49.6076 154.855 49.3782L154.71 49.2144C154.619 49.127 154.569 49.0505 154.551 48.9777L154.54 48.9268L154.572 48.8867C155.032 48.2969 155.362 47.8964 155.554 47.6999C155.866 47.3686 156.079 47.161 156.21 47.07C156.326 46.9899 156.507 46.888 156.757 46.7678L156.764 46.7242C156.775 46.6732 156.782 46.6222 156.782 46.5712C156.782 46.5603 156.782 46.5458 156.782 46.5348C156.659 46.5458 156.576 46.553 156.539 46.553H156.26L155.858 46.5749C155.496 46.5967 155.199 46.6186 154.953 46.6477C154.927 46.6477 154.862 46.6586 154.71 46.6914L154.699 46.8807C154.829 46.939 154.927 47.0045 154.992 47.0809C155.072 47.1792 155.112 47.2812 155.112 47.3795C155.112 47.4923 155.058 47.6489 154.942 47.86C154.797 48.1222 154.612 48.3661 154.388 48.5882L154.308 48.6646L154.232 48.5845C154.174 48.5226 154.112 48.4462 154.043 48.3552L153.406 47.5724C153.261 47.394 153.138 47.2557 153.047 47.1647C152.79 46.9171 152.627 46.7424 152.551 46.6404L152.504 46.5749L152.555 46.5094C152.591 46.462 152.645 46.4256 152.714 46.4038C152.848 46.3565 153.029 46.2545 153.246 46.1052C153.46 45.9596 153.601 45.8213 153.663 45.6975C153.743 45.5264 153.786 45.3407 153.786 45.1514C153.786 44.8347 153.645 44.5543 153.359 44.2995C153.073 44.0446 152.674 43.9136 152.178 43.9136C151.812 43.9136 151.682 43.9354 151.638 43.95C151.606 43.9609 151.551 43.9791 151.482 43.9973C151.084 44.1029 150.772 44.2849 150.559 44.5434C150.345 44.8019 150.244 45.0822 150.244 45.399C150.244 45.5482 150.269 45.6939 150.32 45.8431C150.37 45.9924 150.432 46.1162 150.501 46.2145C150.577 46.32 150.747 46.5276 151.008 46.8297L151.091 46.928L150.982 46.9972C150.921 47.0336 150.827 47.0773 150.675 47.1392C150.432 47.2411 150.164 47.394 149.881 47.5979C149.602 47.7945 149.389 48.0311 149.244 48.3042C149.099 48.5736 149.026 48.8649 149.026 49.167C149.026 49.6622 149.204 50.0736 149.548 50.3903C149.899 50.7107 150.45 50.8745 151.185 50.8745C152.04 50.8745 152.841 50.576 153.565 49.9825L153.638 49.9243L153.707 49.9862C154.08 50.3248 154.424 50.5687 154.735 50.7107C154.967 50.8162 155.224 50.8709 155.496 50.8709C155.8 50.8709 156.043 50.8235 156.217 50.7252C156.481 50.5796 156.684 50.3939 156.818 50.1828C156.949 49.9716 157.017 49.8005 157.017 49.6767C157.017 49.6367 157.003 49.6039 156.974 49.5748C156.941 49.542 156.905 49.5275 156.862 49.5275M151.49 44.4087C151.649 44.2776 151.837 44.2085 152.047 44.2085C152.247 44.2085 152.417 44.2522 152.562 44.3395C152.714 44.4305 152.808 44.5288 152.841 44.6381C152.913 44.8893 152.949 45.0786 152.949 45.2096C152.949 45.4754 152.906 45.6756 152.823 45.8176C152.7 46.0142 152.515 46.1671 152.268 46.2764L152.207 46.3055L152.156 46.2618C151.787 45.956 151.54 45.7011 151.403 45.4827C151.29 45.3079 151.236 45.1368 151.236 44.9694C151.236 44.7327 151.319 44.547 151.486 44.4087M153.297 49.6913C152.928 50.0408 152.511 50.2192 152.055 50.2192C151.805 50.2192 151.566 50.1573 151.345 50.0335C151.127 49.9134 150.943 49.775 150.801 49.6185C150.656 49.4619 150.522 49.2435 150.399 48.9668C150.33 48.8066 150.294 48.6355 150.294 48.4535C150.294 48.1731 150.385 47.9183 150.559 47.6999C150.733 47.4887 150.964 47.3212 151.251 47.2047L151.319 47.1756L151.37 47.2339C151.721 47.6161 152.073 48.0166 152.406 48.4243L153.065 49.2216C153.105 49.2763 153.145 49.3236 153.189 49.3709C153.243 49.4292 153.286 49.4911 153.319 49.5566L153.359 49.6294L153.297 49.6876V49.6913Z" fill="#005D45"/>
<path d="M288.457 35.4964C288.457 53.6923 273.779 68.4443 255.674 68.4443C237.569 68.4443 222.895 53.6923 222.895 35.4964C222.895 17.3004 237.573 2.54846 255.678 2.54846C273.783 2.54846 288.461 17.3004 288.461 35.4964" fill="#008034"/>
<path d="M288.457 35.4964C288.457 53.6923 273.779 68.4443 255.674 68.4443C237.569 68.4443 222.895 53.6923 222.895 35.4964C222.895 17.3004 237.573 2.54846 255.678 2.54846C273.783 2.54846 288.461 17.3004 288.461 35.4964" fill="url(#paint0_radial_801_92)"/>
<path d="M255.678 71C236.2 71 220.352 55.0758 220.352 35.5C220.352 15.9242 236.2 0 255.678 0C275.156 0 291 15.9242 291 35.5C291 55.0758 275.156 71 255.678 71ZM255.678 2.04969C237.327 2.04969 222.402 17.0565 222.402 35.5C222.402 53.9435 237.327 68.9503 255.678 68.9503C274.029 68.9503 288.95 53.9435 288.95 35.5C288.95 17.0565 274.025 2.04969 255.678 2.04969Z" fill="url(#paint1_linear_801_92)"/>
<path d="M275.166 49.5384C275.25 49.5857 275.402 49.6767 275.362 49.8223C275.337 49.9133 275.257 49.9607 275.119 49.9607C275.065 49.9607 275.014 49.9534 274.996 49.9497C274.217 49.7495 273.384 49.6512 272.518 49.6512C268.067 49.6512 262.314 53.0225 257.706 56.3791C258.623 57.14 259.608 58.0102 260.557 58.9021C260.695 58.782 260.742 58.7492 260.872 58.64C261.282 58.2978 261.673 58.0611 262.064 57.9191C262.3 57.8318 262.535 57.8136 262.763 57.8609C263.205 57.9519 263.495 58.3888 263.448 58.9021C263.408 59.3426 263.107 59.6812 262.745 59.6958C262.459 59.7031 262.205 59.5611 262.061 59.3099C261.883 59.4555 261.716 59.5938 261.564 59.7395C261.492 59.8086 261.423 59.8778 261.354 59.947L261.64 60.1982C261.865 60.3948 262.082 60.5877 262.303 60.7734C262.738 61.1375 263.212 61.5052 263.745 61.7418C263.912 61.8146 264.129 61.902 264.335 61.8838C264.437 61.8765 264.546 61.8438 264.661 61.811L264.741 61.7891C264.741 61.7891 264.763 61.7819 264.774 61.7746C264.839 61.7455 264.904 61.7127 264.984 61.6981C265.013 61.6945 265.045 61.6872 265.082 61.6872C265.248 61.6872 265.39 61.7709 265.473 61.9166C265.563 62.0695 265.589 62.3098 265.542 62.5064C265.502 62.6665 265.415 62.7794 265.332 62.8777C264.984 63.2709 264.564 63.4966 264.082 63.5476C263.995 63.5585 263.904 63.5621 263.814 63.5621C263.723 63.5621 263.633 63.5585 263.539 63.5476C263.173 63.5112 262.789 63.3947 262.365 63.1981C261.731 62.9032 261.104 62.5027 260.391 61.9348L259.807 61.4651C259.615 61.6508 259.416 61.8365 259.213 62.0185C258.974 62.2333 258.677 62.4736 258.304 62.601C258.203 62.6374 258.094 62.6556 257.978 62.6556C257.935 62.6556 257.895 62.6556 257.851 62.6483C257.801 62.6447 257.75 62.6374 257.699 62.6229C257.38 62.561 257.127 62.2661 257.065 61.8947C257.004 61.5015 257.149 61.112 257.431 60.9227C257.706 60.7406 258.047 60.777 258.304 61.021C258.34 61.0537 258.369 61.0901 258.398 61.1265C258.55 60.9736 258.699 60.8135 258.847 60.646C257.884 59.7722 256.645 58.873 255.522 57.981C254.41 58.873 253.24 59.7722 252.276 60.646C252.425 60.8135 252.573 60.9736 252.726 61.1265C252.755 61.0865 252.787 61.0501 252.82 61.021C253.077 60.7807 253.421 60.7406 253.693 60.9227C253.972 61.1083 254.12 61.4979 254.059 61.8947C254.001 62.2661 253.743 62.5573 253.425 62.6229C253.374 62.6338 253.323 62.6411 253.273 62.6483C253.229 62.652 253.186 62.6556 253.146 62.6556C253.03 62.6556 252.925 62.6374 252.82 62.601C252.447 62.4736 252.15 62.237 251.911 62.0185C251.708 61.8365 251.508 61.6508 251.316 61.4651L250.733 61.9348C250.023 62.4991 249.393 62.9032 248.759 63.1981C248.332 63.3947 247.948 63.5112 247.585 63.5476C247.491 63.5585 247.401 63.5621 247.31 63.5621C247.219 63.5621 247.129 63.5585 247.042 63.5476C246.56 63.4966 246.136 63.2709 245.792 62.8777C245.709 62.7794 245.622 62.6702 245.582 62.5064C245.531 62.3098 245.56 62.0731 245.647 61.9166C245.731 61.7673 245.872 61.6872 246.039 61.6872C246.075 61.6872 246.107 61.6909 246.136 61.6981C246.216 61.7127 246.285 61.7455 246.346 61.7746C246.357 61.7782 246.368 61.7855 246.379 61.7891L246.459 61.811C246.575 61.8438 246.687 61.8729 246.785 61.8838C246.991 61.902 247.212 61.8146 247.375 61.7418C247.908 61.5052 248.386 61.1375 248.817 60.7734C249.038 60.5877 249.259 60.3948 249.48 60.1982L249.766 59.947C249.697 59.8778 249.628 59.8086 249.556 59.7395C249.404 59.5938 249.237 59.4519 249.06 59.3099C248.911 59.5647 248.661 59.7031 248.375 59.6958C248.016 59.6812 247.712 59.3426 247.672 58.9021C247.625 58.3888 247.915 57.9519 248.357 57.8609C248.585 57.8136 248.821 57.8318 249.056 57.9191C249.447 58.0648 249.839 58.2978 250.248 58.64C250.378 58.7492 250.425 58.782 250.563 58.9021C251.541 57.9847 252.494 57.151 253.425 56.3864C248.817 53.0261 243.061 49.6512 238.605 49.6512C237.74 49.6512 236.906 49.7531 236.128 49.9497C236.11 49.9534 236.059 49.9607 236.004 49.9607C235.87 49.9607 235.787 49.9133 235.762 49.8223C235.722 49.6767 235.878 49.5857 235.957 49.5384C236.236 49.3745 237.783 48.7665 240.221 48.7665C243.655 48.7665 248.839 49.7604 255.424 54.6098L255.558 54.7154L255.587 54.6935C262.173 49.8405 267.44 48.7665 270.874 48.7665C273.312 48.7665 274.859 49.3745 275.137 49.5384M257.504 47.4559C257.105 48.1221 256.554 49.9425 256.554 49.9679C257.138 49.4947 258.887 49.1379 259.637 48.9777C265.002 47.8163 265.335 42.9306 265.498 41.9731C265.357 42.2461 264.977 42.8213 261.695 42.9706C259.978 43.0507 257.127 43.2619 255.645 46.0907C255.902 46.6113 256.105 47.1938 256.257 47.8345C258.098 43.4184 262.644 44.0228 263.415 43.8589C262.647 44.1939 259.355 44.3577 257.5 47.4559M255.482 52.6293L256.29 52.2288C256.094 43.5677 251.425 43.0762 249.168 42.9706C245.886 42.8213 245.506 42.2425 245.368 41.9731C245.528 42.9306 245.865 47.8163 251.23 48.9777C251.994 49.1452 253.131 49.3017 253.678 49.7896C253.052 44.1283 248.39 44.2703 247.451 43.8589C248.335 44.0446 254.979 42.6357 254.671 52.2288L255.482 52.6293ZM252.758 27.6799C252.613 25.2006 255.435 20.7954 255.435 20.7954C255.435 20.7954 258.141 25.3098 258.112 27.6799C258.09 29.391 256.913 30.7781 255.435 30.7781C253.957 30.7781 252.86 29.3873 252.758 27.6799ZM256.598 29.7114C256.475 29.7332 256.344 29.7478 256.218 29.7478C254.816 29.7478 253.682 28.4335 253.682 26.8134C253.682 26.5804 253.736 26.2819 253.823 25.9396C253.548 26.6678 253.349 27.334 253.349 27.7454C253.349 29.067 254.276 30.141 255.417 30.141C255.855 30.141 256.265 29.9808 256.598 29.7114ZM248.078 36.8361C248.078 41.7728 255.062 43.3492 255.062 43.3492V41.8165C255.062 36.6941 248.078 35.3034 248.078 35.3034V36.8361ZM255.783 41.8202V43.3529C255.783 43.3529 262.767 41.7765 262.767 36.8398V35.307C262.767 35.307 255.783 36.6978 255.783 41.8202ZM249.839 31.2805C249.839 35.2961 255.149 36.5776 255.149 36.5776V35.3325C255.149 31.1676 249.839 30.0354 249.839 30.0354V31.2805ZM255.696 35.3325V36.5776C255.696 36.5776 261.006 35.2961 261.006 31.2805V30.0354C261.006 30.0354 255.696 31.164 255.696 35.3289M236.856 22.7322C241.467 18.0758 244.43 17.2494 248.121 16.6669C244.343 19.077 240.815 24.68 241.913 28.6264C243.909 24.4397 247.39 20.3512 250.603 18.8586C248.788 21.418 248.726 24.6072 250.476 27.3267C250.882 23.7953 253.345 20.4022 255.403 18.1268C257.46 20.3986 259.923 23.7953 260.325 27.3267C262.075 24.6035 262.017 21.418 260.199 18.8586C263.412 20.3476 266.893 24.4397 268.889 28.6264C269.99 24.68 266.458 19.077 262.684 16.6669C266.371 17.2458 269.334 18.0758 273.946 22.7322C272.424 16.5031 267.063 14.3442 262.778 13.576C267.494 13.1682 268.429 13.6524 272.595 15.3854C268.074 10.9183 264.904 10.1137 260.376 10.547C261.151 9.86617 261.894 9.49846 263.035 9.19629C261.137 8.44631 258.163 8.8395 257.007 9.95354C257.007 9.95354 256.779 7.9075 255.417 7.08107V7.06287C255.417 7.06287 255.406 7.07015 255.403 7.07379C255.399 7.07015 255.392 7.06651 255.388 7.06287V7.08107C254.026 7.9075 253.798 9.95354 253.798 9.95354C252.642 8.8395 249.668 8.44631 247.77 9.19629C248.911 9.49846 249.654 9.86617 250.429 10.547C245.901 10.1137 242.731 10.9183 238.211 15.3854C242.376 13.6524 243.311 13.1719 248.027 13.576C243.742 14.3442 238.384 16.5031 236.859 22.7322" fill="url(#paint2_linear_801_92)"/>
</g>
<defs>
<radialGradient id="paint0_radial_801_92" cx="0" cy="0" r="1" gradientUnits="userSpaceOnUse" gradientTransform="translate(253.975 33.5327) scale(35.8583 34.5973)">
<stop stop-opacity="0"/>
<stop offset="0.12" stop-opacity="0"/>
<stop offset="0.15" stop-opacity="0"/>
<stop offset="0.87" stop-opacity="0.2916"/>
<stop offset="1"/>
</radialGradient>
<linearGradient id="paint1_linear_801_92" x1="228.133" y1="50.2119" x2="290.645" y2="17.1564" gradientUnits="userSpaceOnUse">
<stop stop-color="#C68D00"/>
<stop offset="0.25" stop-color="#FFD740"/>
<stop offset="0.34" stop-color="#F4C833"/>
<stop offset="0.51" stop-color="#D7A313"/>
<stop offset="0.6" stop-color="#C68D00"/>
<stop offset="1" stop-color="#FFD740"/>
</linearGradient>
<linearGradient id="paint2_linear_801_92" x1="245.832" y1="9.24362" x2="265.666" y2="64.1286" gradientUnits="userSpaceOnUse">
<stop stop-color="#C68D00"/>
<stop offset="0.05" stop-color="#D2A32A"/>
<stop offset="0.1" stop-color="#DFB955"/>
<stop offset="0.16" stop-color="#EACC78"/>
<stop offset="0.22" stop-color="#F2DA94"/>
<stop offset="0.27" stop-color="#F8E4A8"/>
<stop offset="0.33" stop-color="#FBEAB4"/>
<stop offset="0.39" stop-color="#FDEDB8"/>
<stop offset="0.58" stop-color="#FDEDB8"/>
<stop offset="0.65" stop-color="#F5E09F"/>
<stop offset="0.79" stop-color="#E3C061"/>
<stop offset="1" stop-color="#C68D00"/>
</linearGradient>
<clipPath id="clip0_801_92">
<rect width="291" height="71" fill="white"/>
</clipPath>
</defs>
</svg>
