<svg xmlns="http://www.w3.org/2000/svg" width="159.616" height="93.82" viewBox="0 0 159.616 93.82"><g transform="translate(-1044.454 25.82)"><g transform="translate(-14 -10)"><rect width="159.616" height="93.82" rx="8" transform="translate(1058.454 -15.82)" fill="#fff"/><g transform="translate(12.072 -3)"><g transform="translate(8.385)"><g transform="translate(1063.005 3.221)"><g transform="translate(-0.008)"><g transform="translate(0 3.576)"><g transform="translate(6.617 31.684)"><path d="M17.674,93.947H16.29v-7.1h1.559L20.7,91.824V86.85h1.38v7.1H20.6l-2.927-5.115Z" transform="translate(-16.29 -86.85)" fill="#a7adae"/><path d="M48.669,88.425l-.946,2.842h1.892ZM45.32,93.947l2.513-7.1H49.55l2.509,7.1H50.492L50.013,92.5h-2.7l-.471,1.445Z" transform="translate(-33.534 -86.85)" fill="#a7adae"/><path d="M106.718,93.947H105.33v-7.1h2.176l1.291,5.631,1.275-5.631h2.14v7.1h-1.38V87.979L109.5,93.947h-1.453l-1.328-6.1Z" transform="translate(-69.18 -86.85)" fill="#a7adae"/><path d="M77.353,88.425l-.942,2.842H78.3ZM74,93.947l2.517-7.1h1.717l2.509,7.1H79.18L78.7,92.5H76l-.471,1.445Z" transform="translate(-50.57 -86.85)" fill="#a7adae"/><path d="M142.019,88.425l-.946,2.842h1.892Zm-3.349,5.521,2.513-7.1H142.9l2.509,7.1h-1.567l-.479-1.445h-2.7l-.471,1.445Z" transform="translate(-88.985 -86.85)" fill="#a7adae"/></g><path d="M146.121,20.782H148.7a.739.739,0,0,0,.544-.215.7.7,0,0,0,.215-.516V17.473a.735.735,0,0,0-.215-.548.7.7,0,0,0-.512-.215h-2.615a.812.812,0,0,0-.56.215.719.719,0,0,0-.231.548v2.578a.7.7,0,0,0,.215.516.779.779,0,0,0,.576.215" transform="translate(-86.324 -13.502)" fill="#193661"/><path d="M63.215,22.158c0-.54-.028-1.161-.049-1.868a.812.812,0,0,0-.2-.447.69.69,0,0,0-.532-.183H59.675a.654.654,0,0,0-.483.183.6.6,0,0,0-.179.447q.061,2.38.065,4.433v3.938c0,.532-.089.844-.264.942a2.436,2.436,0,0,1-1.06.15H48.011a3.816,3.816,0,0,1-.532-.049,2.927,2.927,0,0,1-.629-.166,2.2,2.2,0,0,1-.544-.313.877.877,0,0,1-.317-.532,3.4,3.4,0,0,0,.069-.678v-2.63A7.251,7.251,0,0,0,44.1,19.876a7.348,7.348,0,0,0-5.327-1.835,7.676,7.676,0,0,0-5.428,1.868,7.176,7.176,0,0,0-2.03,5.509V28.2a2.635,2.635,0,0,1-.1.812.812.812,0,0,1-.264.43,1.173,1.173,0,0,1-.479.231,3.415,3.415,0,0,1-.6.081H6.15a2.732,2.732,0,0,1-1.388-.28c-.309-.187-.463-.658-.463-1.409V9.471A.715.715,0,0,0,4.132,9a.617.617,0,0,0-.483-.195H.69A.678.678,0,0,0,.194,9a.637.637,0,0,0-.2.467V29.323A6.865,6.865,0,0,0,.34,31.69a3.276,3.276,0,0,0,1,1.421,3.548,3.548,0,0,0,1.555.7,10.417,10.417,0,0,0,2.03.179H29.226a10.064,10.064,0,0,0,2.152-.231,3.386,3.386,0,0,0,1.721-.893,4.665,4.665,0,0,0,2.363,1.425,11.485,11.485,0,0,0,3.248.463,9.248,9.248,0,0,0,3.029-.463,5.132,5.132,0,0,0,2.2-1.425,5.745,5.745,0,0,0,1.953.861,9.248,9.248,0,0,0,2.217.264H58.465c.528,0,1.043-.032,1.539-.065s.95-.073,1.356-.114a6.76,6.76,0,0,0,.978-.166,1.137,1.137,0,0,0,.544-.406,1.576,1.576,0,0,0,.215-.564c.069-.593.106-1.372.118-2.33s0-2.148,0-3.56V22.158m-21.326,5A4.311,4.311,0,0,1,41.126,30a3.032,3.032,0,0,1-2.436.877,3.727,3.727,0,0,1-2.03-.512A2.578,2.578,0,0,1,35.6,28.66a10.721,10.721,0,0,1-.1-1.5V25.734a4.554,4.554,0,0,1,.759-2.931,3,3,0,0,1,2.436-.909,3,3,0,0,1,2.436.909,4.6,4.6,0,0,1,.747,2.931Z" transform="translate(0.008 -8.808)" fill="#193661"/></g><path d="M194.238,33.483V20.41l-6.2,4.551a8.464,8.464,0,0,0-3.455,6.821V54.541l6.2-4.551a8.453,8.453,0,0,0,3.455-6.821V37.575l-4.06-.032Z" transform="translate(-109.64 -12.124)" fill="#0a8944"/><path d="M250.035,35.621a8.461,8.461,0,0,0-3.455,6.821V43.66l3.93,3.926h-3.93v13.3l6.2-4.551a8.453,8.453,0,0,0,3.455-6.821V31.07Z" transform="translate(-146.469 -18.456)" fill="#4789c8"/><path d="M224.958,25.147V0l-6.2,4.551a8.457,8.457,0,0,0-3.459,6.816v9.987l4.06,4.06H215.3V47.5l6.2-4.551a8.453,8.453,0,0,0,3.455-6.821V29.117h-3.97Z" transform="translate(-127.889)" fill="#63be6c"/></g></g></g><rect width="147.616" height="16" rx="6" transform="translate(1052.382 53)" fill="#63be6a"/><path d="M-108.914-1.534h.026V-9.282h1.43V0h-2.249l-3.5-7.826h-.026V0h-1.417V-9.282h2.314ZM-101.7,0h-1.625l3.445-9.282h2.067L-94.38,0h-1.638l-.949-2.522h-3.809Zm1.3-3.77h3.055l-1.521-4.342ZM-89.674,0H-91.3l3.445-9.282h2.067L-82.355,0h-1.638l-.949-2.522h-3.809Zm1.3-3.77h3.055L-86.84-8.112ZM-73.5-1.417h.039l2.2-7.865h2.574V0h-1.443V-8.06h-.026L-72.566,0h-1.9l-2.327-8.06h-.026V0h-1.4V-9.282h2.548ZM-62.933,0h-1.625l3.445-9.282h2.067L-55.614,0h-1.638L-58.2-2.522H-62.01Zm1.3-3.77h3.055L-60.1-8.112Zm16.562-5.512h1.521v8.047h3.9V0h-5.421Zm15.7,5.837A4.516,4.516,0,0,1-29.6-1.937a3.2,3.2,0,0,1-.67,1.131,2.877,2.877,0,0,1-1.053.715,3.7,3.7,0,0,1-1.384.247,3.7,3.7,0,0,1-1.385-.247,2.877,2.877,0,0,1-1.053-.715,3.2,3.2,0,0,1-.67-1.131,4.516,4.516,0,0,1-.234-1.508,4.531,4.531,0,0,1,.234-1.5,3.06,3.06,0,0,1,.67-1.124,2.956,2.956,0,0,1,1.053-.7,3.7,3.7,0,0,1,1.385-.247,3.788,3.788,0,0,1,1.384.24,2.847,2.847,0,0,1,1.053.7,3.124,3.124,0,0,1,.67,1.131A4.531,4.531,0,0,1-29.367-3.445Zm-1.482,0a4.1,4.1,0,0,0-.111-.982A2.29,2.29,0,0,0-31.3-5.2a1.589,1.589,0,0,0-.579-.507,1.785,1.785,0,0,0-.832-.182,1.785,1.785,0,0,0-.832.182,1.568,1.568,0,0,0-.579.514,2.369,2.369,0,0,0-.338.773,4.019,4.019,0,0,0-.111.975,3.1,3.1,0,0,0,.461,1.781,1.607,1.607,0,0,0,1.4.689,1.608,1.608,0,0,0,1.4-.683A3.131,3.131,0,0,0-30.849-3.445Zm7.306-.143a3.614,3.614,0,0,0,.111.917,2.321,2.321,0,0,0,.325.735,1.513,1.513,0,0,0,.546.487,1.63,1.63,0,0,0,.774.176A1.709,1.709,0,0,0-21-1.45a1.713,1.713,0,0,0,.585-.487,2.3,2.3,0,0,0,.371-.735,3.1,3.1,0,0,0,.13-.917,3,3,0,0,0-.13-.923,2.333,2.333,0,0,0-.371-.715A1.713,1.713,0,0,0-21-5.714a1.709,1.709,0,0,0-.786-.175,1.691,1.691,0,0,0-.767.175,1.417,1.417,0,0,0-.566.507,2.484,2.484,0,0,0-.319.735A3.534,3.534,0,0,0-23.543-3.588Zm3.588,2.418h-.026a2.191,2.191,0,0,1-.9.78,2.761,2.761,0,0,1-1.163.247A2.852,2.852,0,0,1-23.3-.41a2.76,2.76,0,0,1-.936-.728,3.222,3.222,0,0,1-.585-1.092,4.439,4.439,0,0,1-.2-1.359,4.311,4.311,0,0,1,.208-1.359,3.247,3.247,0,0,1,.6-1.092,2.722,2.722,0,0,1,.956-.722,2.875,2.875,0,0,1,1.215-.26,2.78,2.78,0,0,1,1.157.24,2.311,2.311,0,0,1,.91.748h.026v-.832h1.443V-.52a3.343,3.343,0,0,1-.3,1.437,2.5,2.5,0,0,1-.767.93,3.34,3.34,0,0,1-1.1.52,5.032,5.032,0,0,1-1.333.169,8.315,8.315,0,0,1-1.138-.078,5.444,5.444,0,0,1-1.021-.234l.221-1.118a5.535,5.535,0,0,0,.884.228,5.706,5.706,0,0,0,.936.071A2.347,2.347,0,0,0-20.495.91a1.842,1.842,0,0,0,.54-1.43Zm7.917-5.694V0H-13.52V-6.864Zm.026-2.626v1.378h-1.521V-9.49Zm6.435,2.626V-5.9h.026a1.953,1.953,0,0,1,.858-.826A2.729,2.729,0,0,1-3.432-7.02a2.459,2.459,0,0,1,1.82.676,2.459,2.459,0,0,1,.676,1.82V0H-2.418V-3.965a4.6,4.6,0,0,0-.065-.806,1.553,1.553,0,0,0-.234-.611,1.1,1.1,0,0,0-.442-.377,1.638,1.638,0,0,0-.7-.13,1.663,1.663,0,0,0-.611.117,1.464,1.464,0,0,0-.533.364,1.894,1.894,0,0,0-.384.643,2.757,2.757,0,0,0-.149.968V0H-7.02V-6.864Z" transform="translate(1184.029 65.18)" fill="#fff"/></g></g><rect width="3" height="17" rx="1.5" transform="translate(1132.454 60) rotate(90)" fill="#63be6a"/></g></svg>