<svg xmlns="http://www.w3.org/2000/svg" width="13.938" height="18.714" viewBox="0 0 13.938 18.714">
  <path id="phone" d="M10.722,2.139a4.793,4.793,0,0,1,3.486.381,3.354,3.354,0,0,1,1.764,2.921A15.515,15.515,0,0,1,13.6,13.686a19,19,0,0,1-5.768,6.4,3.376,3.376,0,0,1-3.369.277,4.562,4.562,0,0,1-2.3-2.59,2.147,2.147,0,0,1,.14-1.794l1.114-1.988a2.92,2.92,0,0,1,3.591-1.3l.778.3a.861.861,0,0,0,.92-.117A5.045,5.045,0,0,0,10.061,10.4a.91.91,0,0,0-.4-.9l-.7-.53a2.92,2.92,0,0,1-.774-3.784L9.32,3.2a2.253,2.253,0,0,1,1.4-1.063ZM14.8,5.473A2.189,2.189,0,0,0,13.637,3.54a3.627,3.627,0,0,0-2.628-.269,1.086,1.086,0,0,0-.676.513L9.2,5.764a1.752,1.752,0,0,0,.464,2.27l.7.53a2.071,2.071,0,0,1,.836,2.09,6.22,6.22,0,0,1-1.667,3.053,2.024,2.024,0,0,1-2.156.374l-.778-.3a1.752,1.752,0,0,0-2.155.78L3.331,16.553a.979.979,0,0,0-.064.818A3.4,3.4,0,0,0,4.955,19.3a2.207,2.207,0,0,0,2.232-.187A17.867,17.867,0,0,0,12.6,13.1,14.367,14.367,0,0,0,14.8,5.473Z" transform="translate(-2.038 -1.977)" fill="#fff"/>
</svg>
